<svg width="30" height="30" viewBox="0 0 30 30" fill="none" xmlns="http://www.w3.org/2000/svg">
<g clip-path="url(#clip0_135_367)">
<path d="M14.9998 12.2725V18.0816H23.0725C22.718 19.9497 21.6542 21.5316 20.0588 22.5952L24.9269 26.3725C27.7633 23.7544 29.3997 19.909 29.3997 15.3408C29.3997 14.2772 29.3042 13.2544 29.1269 12.2726L14.9998 12.2725Z" fill="white"/>
<path d="M6.59339 17.855L5.49544 18.6955L1.60901 21.7227C4.07718 26.6181 9.1359 30 14.9995 30C19.0494 30 22.4448 28.6636 24.9267 26.3727L20.0585 22.5954C18.7221 23.4954 17.0176 24.0409 14.9995 24.0409C11.0995 24.0409 7.78597 21.4091 6.59952 17.8636L6.59339 17.855Z" fill="white"/>
<path d="M1.60897 8.27734C0.586302 10.2954 0 12.5727 0 15C0 17.4272 0.586302 19.7045 1.60897 21.7226C1.60897 21.7362 6.59997 17.8499 6.59997 17.8499C6.29997 16.9499 6.12265 15.9954 6.12265 14.9998C6.12265 14.0042 6.29997 13.0498 6.59997 12.1498L1.60897 8.27734Z" fill="white"/>
<path d="M14.9998 5.97272C17.2089 5.97272 19.1725 6.73634 20.7407 8.20909L25.0361 3.91369C22.4316 1.48646 19.0499 0 14.9998 0C9.13621 0 4.07718 3.36818 1.60901 8.27728L6.59985 12.15C7.78614 8.60452 11.0998 5.97272 14.9998 5.97272Z" fill="white"/>
</g>
<defs>
<clipPath id="clip0_135_367">
<rect width="30" height="30" fill="white"/>
</clipPath>
</defs>
</svg>
