<svg width="1499" height="675" viewBox="0 0 1499 675" fill="none" xmlns="http://www.w3.org/2000/svg">
<path d="M74.8404 643.995C70.7865 645.706 60.5677 646.04 58.1832 668.54C56.149 681.87 58.4484 706.639 78.6652 714.822C91.7545 721.237 118.024 721.216 121.333 695.218C123.903 675.027 106.76 670.323 99.5795 685.295C95.0918 694.653 90.0146 722.768 124.91 722.366C139.183 720.321 169.79 710.584 175.739 682.599C178.533 672.928 185.286 650.706 164.646 654.643C154.932 656.496 147.635 668.989 167.057 684.672C172.968 689.445 191.812 694.692 205.433 681.209C211.041 675.657 217.444 662.605 221.127 656.274" stroke="#FFCC00" stroke-width="4" stroke-linecap="round" stroke-linejoin="round"/>
<path d="M1498.97 565.576L1562.24 508.144L1581.55 591.385L1498.97 565.576Z" stroke="#33342E"/>
<g filter="url(#filter0_f_694_220)">
<circle cx="1469.5" cy="149.5" r="14.5" fill="#FFCC00"/>
</g>
<g filter="url(#filter1_f_694_220)">
<circle cx="814" cy="601" r="15" fill="#FFCC00"/>
</g>
<g filter="url(#filter2_f_694_220)">
<circle cx="1348.5" cy="688.5" r="23.5" fill="#FFCC00"/>
</g>
<g filter="url(#filter3_f_694_220)">
<path d="M137.337 97.6L155.449 118.111M151.652 95L138.798 116.378M143.764 95L148.146 121M135 107.133C139.674 106.748 151.418 105.978 161 105.978" stroke="#F1A820" stroke-width="4" stroke-linecap="round" stroke-linejoin="round"/>
</g>
<g filter="url(#filter4_f_694_220)">
<circle cx="1282" cy="430" r="15" fill="#F1A820"/>
</g>
<path d="M905.585 816.349C906.376 816.589 963.403 793.546 979.372 786.562C1023.06 767.516 1054 751.076 1081.99 732.035C1109.86 713.09 1131.21 694.604 1148.57 674.357C1154.1 667.906 1167.17 649.399 1171.5 641.897C1190.08 609.699 1202.09 573.033 1210.14 524.299C1216.88 483.451 1221.6 456.271 1224.36 442.322C1237.21 377.865 1252.8 334.621 1279.17 290.354C1284.04 282.146 1303.45 253.979 1309.13 246.859C1357.66 185.907 1419.74 139.314 1491.77 109.648C1518.46 98.6711 1537.61 92.1555 1563.5 89C1567.35 88.5154 1567.19 86.5808 1567 86.3327C1566.24 85.3402 1562.9 87.3651 1548.41 90.6942C1504.88 100.654 1458.62 120.58 1419.16 146.207C1415.84 148.366 1412.72 150.418 1412.21 150.728C1404.42 155.515 1384.47 170.359 1372.81 180.038C1312.52 230.233 1266.96 295.415 1243.14 365.547C1231.43 400.026 1225.01 428.914 1212.95 501.071C1210.34 516.732 1207.33 534.032 1206.29 539.593C1199.33 576.47 1189.1 607.007 1174.46 634.657C1169.23 644.532 1156.12 663.969 1149.13 672.227C1121.55 704.684 1080.16 735.687 1029.34 761.88C1004.5 774.708 983.214 784.161 938.44 802.349C920.168 809.736 905.179 815.893 905.123 815.975C905.04 816.097 905.285 816.264 905.585 816.349Z" fill="black"/>
<path d="M922.653 828.085C923.211 828.405 926.054 827.296 954.849 815.667C1028.56 785.825 1072.84 762.049 1113.22 730.599C1152.63 699.866 1177.48 667.999 1195.14 625.568C1205.39 600.957 1212.81 573.405 1218.45 538.733C1218.83 536.246 1219.22 534.183 1219.28 534.101C1219.33 534.019 1219.89 530.398 1220.56 526.079C1221.22 521.691 1221.82 518.097 1221.88 518.015C1221.93 517.934 1222.87 512.605 1223.95 506.113C1233.75 446.925 1241.07 414.171 1251.62 382.364C1265.13 341.578 1285.44 302.798 1311.42 268.123C1315.07 263.202 1318.8 258.336 1319.67 257.318C1320.57 256.258 1322.93 253.324 1325.01 250.797C1333.8 240.065 1346.39 226.481 1357.84 215.349C1395.81 178.498 1442.11 147.377 1491.89 125.253C1510.03 117.18 1534.01 108.957 1553.7 104.033C1563.63 101.538 1558.87 102.552 1567.69 101.511C1572.45 100.925 1576.19 100.248 1576 100C1575.15 98.8835 1575 97.9884 1558.71 101.766C1490.85 117.496 1420.46 155.868 1364.75 207.393C1347.93 222.991 1334.47 237.416 1318.5 257.115C1310.8 266.68 1290.9 295.65 1285.15 305.766C1252.26 363.454 1238.65 408.168 1221.44 514.973C1218.99 530.143 1217.89 536.497 1215.58 549.26C1203.58 615.367 1181.91 662.36 1146.35 699.534C1119.97 727.075 1081 754.884 1037.26 777.42C1010.41 791.269 986.595 801.808 940.258 820.364C923.195 827.201 922.082 827.697 922.653 828.085Z" fill="black"/>
<path d="M1300.92 306.952C1269.55 357.427 1252.59 403.916 1238.78 477.22C1235.8 492.919 1231.2 520.004 1227.09 545.684C1217.49 605.367 1204.32 644.349 1181.39 680.572C1150.04 730.227 1088.52 775.648 1000.29 814.293C987.894 819.709 981.738 822.266 960.073 831.045C948.23 835.822 939.573 839.602 939.899 839.824C941.244 840.74 998.21 816.998 1023.42 805.022C1064.5 785.514 1097.87 765.058 1125.71 742.389C1151.1 721.751 1167.5 703.958 1181.97 681.563C1194.38 662.187 1203.09 643.872 1211.03 620.198C1218.95 596.634 1222.51 580.188 1231.61 525.181C1241.22 467.237 1247.22 438.714 1256.26 408.508C1261.29 391.569 1265.43 380.055 1271.77 365.031C1279.2 347.456 1285.45 335.292 1298.46 313.033C1299.47 311.277 1303.31 305.29 1306.98 299.726C1351.82 231.732 1418.67 175.069 1496.07 139.444C1533.7 122.121 1574.4 110.534 1610.84 106.682C1613.6 106.406 1615.97 106.168 1616.1 106.142C1616.24 106.116 1616.05 105.868 1615.6 105.562C1614.05 104.508 1591.76 107.724 1575.03 111.443C1499.74 128.09 1423.82 170.394 1364.02 228.984C1340.72 251.818 1317.01 281.122 1300.92 306.952Z" fill="black"/>
<path d="M1321.5 301.968C1321.52 302.105 1318.09 307.411 1313.88 313.682C1290.63 348.369 1273.97 385.034 1261.59 428.554C1254.14 454.833 1247.85 484.941 1240.03 532.103C1233.62 570.614 1232.31 578.499 1230.58 587.174C1219.7 642.342 1200.69 685.349 1172.44 718.964C1150.48 745.095 1116.59 772.184 1077.57 794.887C1048.31 811.931 1019.52 825.653 975.574 843.506C965.613 847.534 957.274 850.934 957.122 851.069C956.902 851.218 957.022 851.479 957.348 851.701C958.164 852.256 994.559 837.262 1019.08 826.306C1058.77 808.482 1095.9 786.885 1124.45 765.112C1145.4 749.045 1159.71 735.736 1174.24 718.693C1179.21 712.881 1194.62 690.234 1198.44 683.221C1211.38 659.306 1220.27 635.805 1227.36 607.073C1231.01 592.242 1234.09 575.709 1240.6 536.077C1252.87 461.254 1262.09 423.877 1278.23 383.157C1291.94 348.724 1314.93 310.215 1341.29 277.705C1365.33 248.089 1397.74 217.907 1430.53 194.723C1447.81 182.482 1470.08 168.864 1486.34 160.582C1511.62 147.635 1535.19 137.888 1558.39 130.807C1581.05 123.899 1607.6 118.628 1629.94 116.576C1631.41 116.439 1631.43 116.398 1630.73 115.858C1628.73 114.498 1598.87 119.191 1578.73 124.056C1511.51 140.339 1442.09 178.173 1386.22 228.874C1364.66 248.466 1343.86 271.392 1328.31 292.751C1325.52 296.585 1322.83 300.187 1322.36 300.703C1321.86 301.259 1321.5 301.79 1321.5 301.968Z" fill="black"/>
<path d="M1313.71 340.137C1284.65 389.321 1268.92 434.261 1255.46 506.185C1253.21 518.263 1250.64 533.172 1243.7 574.908C1237.78 610.522 1233.32 629.698 1225.82 651.582C1209.48 699.514 1185.25 735.205 1147.43 767.021C1125.72 785.326 1104.49 799.775 1076.24 815.596C1056.31 826.745 1029.67 839.844 1010.57 847.922C999.825 852.49 987.048 857.764 980.742 860.279C976.182 862.071 974.146 863.134 974.554 863.411C975.532 864.077 1005.88 851.478 1031.16 839.845C1055.89 828.493 1072.99 819.412 1096.98 804.934C1108.01 798.288 1126.45 785.401 1137.11 777.013C1157.79 760.643 1172.15 746.65 1186.13 729.178C1191.24 722.805 1203.17 704.589 1207.74 696.117C1222.32 669.261 1233.02 638.03 1240.3 600.951C1241.28 596.005 1243.94 580.618 1246.25 566.788C1256.32 506.234 1259.98 486.75 1266.11 461.787C1277.18 416.598 1290.38 383.187 1312.22 344.791C1318.11 334.471 1338.62 304.603 1347 294.128C1386.53 244.904 1437.48 203.095 1494.3 173.166C1544.64 146.708 1594.13 131.493 1645.03 126.843C1646.49 126.706 1646.52 126.666 1645.81 126.125C1644.55 125.265 1625.85 127.583 1610.63 130.482C1583.53 135.679 1562.88 141.743 1537.04 152.099C1499.41 167.15 1462.14 188.24 1429.03 213.228C1399.3 235.688 1375.14 258.651 1352.33 286.115C1348.69 290.503 1344.87 295.066 1343.91 296.207C1340.76 299.969 1317.18 334.257 1313.71 340.137Z" fill="black"/>
<path d="M1323.73 350.837C1298.29 392.868 1282.17 434.862 1269.65 491.657C1266.05 507.898 1261.1 534.446 1256.99 559.77C1247.34 619.001 1244.06 635.217 1237.18 656.806C1227.64 687.035 1217.49 708.786 1202.84 730.399C1190.39 748.858 1178.7 761.917 1160.26 778.144C1120.77 812.941 1071.93 841.384 1001.68 870.533C996.16 872.863 991.761 874.944 991.95 875.192C992.369 875.716 991.463 875.995 999.376 872.783C1068.12 844.88 1120.5 814.554 1160.44 779.637C1178.86 763.52 1190.13 750.826 1203.28 731.594C1222 704.092 1233.23 677.944 1243.85 637.104C1247.48 623.272 1248.98 615.279 1256.93 567.489C1260.14 548.302 1263.99 526.082 1265.5 518.089C1275.9 463.191 1287.23 425.41 1304.12 389.733C1340.84 312.206 1401.65 246.002 1479.58 198.734C1536.42 164.22 1596.88 143.152 1654.51 137.716C1658.32 137.382 1661.28 136.889 1661.09 136.641C1660.61 136.021 1659.23 136.035 1651.74 136.787C1632.54 138.704 1608.85 143.358 1588.77 149.1C1567.12 155.319 1547.71 162.531 1526.41 172.449C1512.63 178.837 1505.07 182.764 1489.68 191.519C1436.43 221.905 1390.9 260.835 1353.3 308.27C1347.43 315.675 1328.77 342.562 1323.73 350.837Z" fill="black"/>
<path d="M1337.37 355.699C1337.39 355.836 1335.44 359.048 1333.04 362.845C1328.33 370.384 1322.04 381.453 1317.8 389.791C1293.18 438.057 1279.41 486.601 1265.19 574.901C1262.94 588.896 1257.39 621.598 1256.39 626.831C1242.37 700.283 1216.13 750.847 1171.35 790.77C1131.66 826.209 1082.53 855.525 1016.73 883.045C1012.95 884.652 1009.57 886.113 1009.2 886.219C1008.82 886.434 1008.8 886.722 1009.17 886.971C1009.86 887.443 1017.65 884.326 1033.24 877.38C1081.71 855.859 1118.84 834.44 1150.75 809.646C1163.66 799.623 1171.82 792.457 1184.93 779.589C1188.95 775.698 1197.74 765.5 1202.94 758.828C1225.34 729.95 1241.39 695.141 1252.32 651.827C1255.61 638.663 1258.47 623.948 1262.9 596.93C1272.62 537.331 1277.48 511.794 1283.81 486.367C1296.5 435.542 1311.99 398.675 1338.45 356.38C1363.8 315.894 1401.38 274.715 1441.52 243.523C1495.3 201.671 1556.07 171.559 1616.2 157.017C1632.93 152.942 1655.24 149.261 1670.54 148.088C1677.49 147.509 1677.33 147.576 1676.31 146.882C1674.48 145.634 1648.66 148.845 1630.2 152.575C1608.82 156.894 1589.69 162.384 1569.74 169.879C1539.23 181.3 1510.87 195.368 1482.46 213.173C1469.13 221.536 1450.92 234.275 1441.44 241.975C1439.34 243.653 1435.43 246.779 1432.78 248.917C1425.66 254.641 1409.8 268.743 1402.43 275.97C1385.24 292.811 1370.76 309.348 1355.83 329.097C1350.1 336.723 1337.29 355.11 1337.37 355.699Z" fill="black"/>
<path d="M1346.84 367.461C1321.15 407.478 1303.4 449.607 1291.05 499.656C1284.71 525.439 1281.24 543.432 1273 593.054C1271.37 602.634 1269.49 614.072 1268.73 618.514C1262.4 656.833 1256.43 681.196 1247.77 704.261C1235.25 737.651 1218.84 764.997 1197.33 788.45C1187.07 799.674 1178.27 807.778 1162.49 820.444C1129.41 847.129 1086.63 871.864 1034.49 894.473C1028.08 897.22 1025.92 898.377 1026.45 898.737C1028.03 899.751 1069.16 880.517 1092.51 867.867C1138.94 842.687 1178.23 812.828 1203.33 783.578C1215.88 769.007 1229.26 748.559 1237.77 730.886C1243.48 719.072 1248.7 706.145 1252.56 694.081C1253.61 690.861 1254.86 687.108 1255.32 685.812C1257.46 679.686 1261.85 662.194 1264.38 649.885C1266.63 638.874 1268.03 630.935 1273.22 599.475C1278.36 568.344 1281.44 550.675 1284.05 537.463C1296.15 476.025 1310.67 433.482 1333.69 391.949C1335.89 388.014 1338.24 383.697 1338.95 382.389C1339.66 381.082 1345.74 371.79 1352.43 361.71C1364.87 343.073 1369.95 336.14 1381.69 322.219C1392.41 309.452 1407.54 293.537 1419.76 282.152C1424.71 277.517 1435.76 267.668 1437.58 266.221C1437.93 265.978 1439.71 264.502 1441.58 262.973C1450.44 255.746 1454.03 252.932 1461.82 247.187C1506.15 214.309 1558.3 187.826 1607.85 173.132C1633.34 165.579 1660.27 160.449 1684.72 158.457C1688.68 158.165 1691.95 157.826 1692 157.744C1692.03 157.703 1691.76 157.4 1691.35 157.122C1690.99 156.872 1687.94 156.885 1684.65 157.156C1638.25 160.985 1592.95 173.556 1545.15 195.835C1510.01 212.223 1471.04 236.87 1441.72 261.277C1433.38 268.194 1431.49 269.833 1425.99 274.75C1402.59 295.722 1380.94 319.557 1362.65 344.49C1355.48 354.237 1352.9 358.032 1346.84 367.461Z" fill="black"/>
<path d="M1358.54 375.604C1358.55 375.672 1356.09 379.55 1353.12 384.272C1347.06 393.701 1341.07 404.254 1335.54 415.002C1310.59 463.757 1296.72 512.355 1282.28 601.762C1272.45 662.661 1269.23 678.262 1261.72 702.35C1245.65 753.747 1220.66 792.922 1183.47 825.113C1146.55 857.005 1101.36 884.4 1044.84 908.981C1043.04 909.785 1042.93 909.949 1043.54 910.365C1043.94 910.642 1045.11 910.42 1046.18 909.896C1047.23 909.413 1051.86 907.252 1056.51 905.16C1109.99 881.017 1153.69 853.622 1187.41 823.192C1205.23 807.082 1214.55 796.465 1227.17 778.008C1240.31 758.708 1249.15 741.502 1257.48 718.927C1267.44 691.85 1272.16 671.596 1281.04 617.341C1281.39 615.25 1282.52 608.252 1283.59 601.761C1294.62 534.632 1303.51 496.856 1317 460.299C1328.52 429.089 1341.48 403.819 1361.19 374.246C1377.04 350.522 1389.89 334.366 1408.79 314.393C1469.42 250.391 1551.94 201.113 1633.69 179.968C1657.79 173.743 1686.05 169.214 1705.92 168.412C1707.72 168.319 1707.76 168.346 1706.81 167.64C1704.06 165.712 1664.34 171.217 1641.41 176.685C1559.42 196.172 1476.38 243.844 1414.15 307.052C1396.19 325.282 1383.05 340.996 1368.09 362.1C1362.82 369.497 1358.57 375.563 1358.54 375.604Z" fill="black"/>
<path d="M1358.1 402.891C1341.42 431.001 1329.22 457.51 1319.57 486.766C1309.37 517.618 1300.64 555.505 1293.02 602.204C1292.35 606.345 1291.58 610.895 1291.29 612.371C1291.07 613.833 1289.63 622.525 1288.1 631.695C1279.32 685.787 1274.66 705.782 1264.38 733.773C1252.49 766.225 1235.4 794.837 1213.56 818.957C1195.36 839.115 1166.57 862.213 1134.91 882.095C1119.07 892.037 1089.01 908.061 1069.29 917.145C1059.39 921.693 1059.8 921.437 1060.54 921.937C1061.11 922.325 1072.34 917.31 1085.2 910.954C1087.44 909.853 1091.16 907.971 1093.47 906.856C1106.33 900.501 1131.8 885.776 1146.18 876.396C1157.02 869.324 1173.12 857.414 1183.73 848.753C1209.24 827.842 1229.16 805.154 1243.55 780.678C1257.48 756.964 1267.35 732.993 1275.27 703.57C1279.77 686.873 1282.58 673.198 1287.12 645.66C1297.65 581.894 1300.29 567.328 1305.74 542.495C1313.97 505.164 1325.06 471.159 1338.12 443.207C1355.78 405.607 1377.83 371.894 1405.84 339.851C1463.56 273.81 1543.75 221.814 1628.66 195.415C1649.32 188.995 1681.39 182.283 1699.63 180.549C1700.85 180.423 1701.91 180.008 1702.08 179.586C1702.76 177.963 1670.84 183.048 1652.96 187.413C1557.99 210.544 1465.05 268.199 1400.6 344.046C1390.58 355.793 1385.43 362.562 1373.87 379.29C1367.15 388.987 1360.08 399.638 1358.1 402.891Z" fill="black"/>
<path d="M1369.25 411.672C1362.83 421.809 1351.23 443.41 1345.71 455.363C1332.15 484.76 1321.96 515.681 1313.3 554.089C1308.06 577.391 1304.8 594.88 1297.53 639.31C1288.49 694.659 1285.32 709.754 1277.83 733.377C1271.42 753.492 1265.73 767.113 1255.91 785.924C1250.93 795.432 1234.48 819.588 1227.58 827.545C1218.25 838.272 1212.39 844.254 1201.88 853.642C1175.3 877.349 1143.8 898.657 1105.16 918.872C1100.9 921.104 1079.63 931.584 1077.78 932.361C1076.7 932.816 1076.64 932.898 1077.34 933.37C1079.17 934.618 1121.84 912.251 1143.74 898.56C1177.71 877.317 1206.46 853.835 1226.09 831.309C1240.79 814.446 1255.24 792.16 1263.85 773.118C1264.83 770.978 1266.35 767.598 1267.25 765.581C1273.82 751.366 1281 729.683 1286.17 708.598C1289.94 693.317 1291.88 682.755 1299.02 639.132C1309.56 575.01 1315.14 548.234 1324.92 514.833C1334.97 480.708 1349.64 446.872 1366.35 419.255C1368.02 416.451 1369.76 413.456 1370.21 412.625C1371.86 409.506 1390.24 382.849 1395.53 375.945C1438.48 320.033 1493.94 273.885 1558.75 240.019C1576.61 230.685 1596.96 221.484 1613.05 215.541C1638.31 206.221 1656.57 201.038 1679.88 196.421C1687.93 194.853 1692.7 193.624 1692.85 193.133C1693.08 192.629 1691.19 192.775 1686.38 193.621C1632.11 203.495 1576.82 225.39 1525.46 257.368C1505.1 270.019 1486.71 283.181 1469.83 297.122C1440.33 321.528 1415.92 346.952 1392.98 377.071C1387.89 383.758 1374.81 402.799 1369.25 411.672Z" fill="black"/>
<path d="M1379.54 421.964C1353.88 464.321 1339.67 497.819 1326.91 546.454C1319.65 574.117 1314.77 599.516 1304.18 664.432C1299.67 691.997 1299.08 695.413 1296.5 707.872C1289.13 743.514 1278.31 774.661 1264.1 801.056C1259.11 810.317 1243.37 833.7 1237.23 840.979C1213.51 869.079 1180.84 895.33 1138.63 920.275C1126.78 927.256 1107.18 937.737 1096.55 942.745C1094.24 943.859 1093.71 944.279 1094.15 944.693C1094.42 944.997 1094.74 945.219 1094.88 945.193C1096.05 944.971 1119.05 932.92 1129.52 927.09C1157.71 911.35 1180.63 895.725 1202.46 877.326C1225.15 858.196 1240.92 840.63 1254.91 818.86C1273.45 790.042 1286.14 759.035 1295.34 719.92C1298.91 704.856 1300.86 694.116 1309.97 638.22C1324.66 547.912 1339.12 498.881 1365.76 448.704C1374.36 432.469 1377.21 427.841 1390.86 407.875C1406.6 384.848 1414 375.376 1431 356.795C1494.68 286.991 1584.79 232.964 1674.44 210.811C1679.09 209.677 1682.47 208.572 1682.66 208.108C1682.89 207.604 1680.84 207.886 1676.18 208.952C1625.3 220.951 1569.92 245.597 1521.14 278.01C1479.95 305.387 1442.23 339.421 1412.53 376.047C1401.26 389.876 1386.81 410.068 1379.54 421.964Z" fill="black"/>
<path d="M1388.3 434.787C1358.83 482.023 1340.91 529.119 1327.34 594.992C1323.15 615.252 1320.34 631.308 1312.09 681.463C1310.06 694.173 1307.59 708.495 1306.7 713.318C1301.13 743.145 1292.97 770.732 1282.54 795.094L1281.56 797.412L1283.57 794.542C1287.84 788.436 1296.42 763.646 1302.3 740.296C1306.4 723.923 1308.25 714.017 1315.41 670.284C1320.49 639.412 1322.15 629.436 1324.19 618.642C1338.34 542.714 1353.15 498.874 1381.76 448.249C1387.13 438.773 1405.85 410.668 1413.11 401.223C1450.68 352.337 1497.22 311.048 1551.94 278.075C1587.31 256.776 1626.8 238.991 1663.5 227.846C1668.44 226.372 1671.11 225.261 1671.39 224.675C1671.72 224.007 1669.38 224.561 1662.29 226.726C1607.2 243.683 1552.31 272.179 1504.27 308.746C1473.4 332.276 1445.81 358.698 1422.61 387.09C1411.36 400.81 1397.18 420.593 1388.3 434.787Z" fill="black"/>
<path d="M1394.11 452.182C1393.5 453.258 1391.37 457.002 1389.27 460.528C1385.3 467.321 1379.28 478.626 1375.26 486.814C1355.48 526.913 1341.5 574.004 1330.16 638.53C1329.55 641.877 1328.71 646.441 1328.35 648.641C1327.94 650.814 1325.28 666.735 1322.45 684.036C1315.4 727.003 1312.25 744.083 1309.17 755.004L1308.37 757.748L1309.61 756.199C1311.84 753.359 1315.84 733.632 1323.23 688.15C1329.76 648.23 1329.95 647.164 1332.34 633.745C1333.65 626.394 1337.73 606.189 1339.96 596.176C1351.91 542.155 1368.29 498.795 1391.54 459.385C1392.86 457.18 1394.55 454.267 1395.3 452.987C1399.28 446.084 1409.91 430.21 1417.13 420.381C1429.81 403.156 1438.99 392.209 1455.67 374.365C1460.83 368.8 1460.24 369.411 1469.2 360.707C1510.9 320.304 1559.66 287.152 1614.48 261.83C1625.05 256.905 1642.77 249.623 1651.89 246.394C1655.45 245.113 1658.52 243.746 1658.89 243.215C1659.52 242.277 1659.52 242.277 1657.81 242.781C1652.53 244.32 1631.67 252.518 1620.4 257.505C1587.5 272.011 1552.16 292.38 1523.24 313.478C1496.2 333.226 1476.21 350.848 1450.89 377.441C1446.36 382.176 1435.08 395.157 1430.23 401.23C1427.84 404.206 1425.36 407.235 1424.71 407.927C1423.3 409.474 1395.72 449.391 1394.11 452.182Z" fill="black"/>
<path d="M1410.81 452.199C1381.07 498.954 1363.85 539.774 1350.22 595.819C1344.24 620.291 1339.19 646.825 1331.38 694.589C1331.06 696.639 1329.48 706.315 1327.89 716.1C1325.52 730.368 1325.16 733.526 1325.99 732.302C1326.96 730.874 1329.59 716.239 1334.74 683.506C1348.02 599.577 1362.7 546.278 1385.43 500.007C1396.45 477.593 1404.96 463.328 1421.2 440.169C1432.02 424.72 1436.77 418.522 1446.87 406.585C1492.81 352.233 1555.26 305.356 1623.88 273.606C1629.46 271.016 1636.38 267.959 1639.17 266.753C1642 265.574 1644.61 264.189 1644.97 263.658C1645.33 263.128 1645.53 262.664 1645.45 262.609C1645.37 262.553 1642.56 263.691 1639.24 265.07C1635.88 266.49 1632.27 268.031 1631.25 268.473C1626.51 270.441 1612.71 277.048 1604.82 281.108C1537.74 315.583 1481.6 360.725 1437.3 415.899C1429.6 425.464 1415.8 444.43 1410.81 452.199Z" fill="black"/>
<path d="M1415.65 471.023C1415.69 471.228 1413.79 474.468 1411.42 478.292C1406.38 486.321 1401.25 495.609 1395.06 507.76C1372.58 552.104 1358.35 599.918 1345.62 673.834C1340.1 705.961 1339.17 712.495 1340.13 711.354C1341.07 710.323 1341.43 708.656 1343.05 698.652C1344.9 687.254 1348.4 666.948 1349.5 660.949C1350.15 657.452 1351.05 652.806 1351.45 650.634C1356.27 624.714 1363.43 595.079 1369.86 574.498C1382.64 533.459 1398.17 500.74 1421.78 464.742C1432.5 448.458 1440.23 437.894 1451.93 423.768C1495.87 370.438 1553.6 325.064 1619.36 292.083C1625.26 289.112 1629.2 286.836 1629.7 286.101C1630.33 285.163 1629.59 285.375 1625.51 287.253C1602.86 297.925 1571.93 316.104 1549.19 332.154C1508.71 360.784 1475.63 391.767 1445.08 429.727C1439.48 436.724 1415.55 470.296 1415.65 471.023Z" fill="black"/>
<path d="M1423.75 484.894C1402.45 519.353 1387.71 552.134 1375.26 592.861C1370.48 608.475 1364.1 634.764 1360.02 655.572C1357.8 666.898 1354.33 685.85 1353.88 689.308L1353.53 691.755L1354.53 690.286C1355.1 689.538 1355.71 687.683 1355.95 686.179C1357.23 677.733 1362.61 650.107 1365.51 637.158C1372.25 606.931 1380.33 579.714 1389.38 556.434C1406.73 512.001 1433.49 467.875 1466.48 429.486C1504.82 384.892 1551.85 346.564 1605.28 316.357C1609.74 313.838 1611.78 312.42 1612.28 311.508C1613.73 308.852 1582.22 327.71 1563.07 340.946C1520.54 370.391 1485.46 402.999 1453.41 442.984C1447.63 450.158 1428.65 477.001 1423.75 484.894Z" fill="black"/>
<path d="M1110.81 956.153C1112.47 957.222 1151.33 935.366 1170.8 922.352C1194.23 906.773 1223.3 883.267 1228.05 876.111L1229.9 873.309L1224.39 878.514C1205.25 896.541 1180.6 915.051 1153.88 931.434C1145.04 936.882 1124.12 948.611 1117.32 951.929C1110.21 955.449 1109.99 955.598 1110.81 956.153Z" fill="black"/>
<path d="M1127.24 967.336C1128.46 968.168 1156.78 952.156 1174.71 940.537C1185.84 933.303 1192.43 928.532 1193.55 926.791L1194.67 925.159L1192.28 926.82C1173.35 940.264 1149.17 955.097 1131.09 964.401C1127.18 966.459 1126.59 966.892 1127.24 967.336Z" fill="black"/>
<path d="M1143.59 978.464C1144.61 979.158 1166.43 966.726 1167.81 964.617L1168.84 963.107L1166.69 964.333C1165.51 965.02 1159.71 968.361 1153.75 971.769C1145.19 976.631 1143.02 978.075 1143.59 978.464Z" fill="black"/>
<rect x="381.534" y="127" width="490.507" height="65" transform="rotate(1.35238 381.534 127)" fill="#FFCC00"/>
<defs>
<filter id="filter0_f_694_220" x="1449" y="129" width="41" height="41" filterUnits="userSpaceOnUse" color-interpolation-filters="sRGB">
<feFlood flood-opacity="0" result="BackgroundImageFix"/>
<feBlend mode="normal" in="SourceGraphic" in2="BackgroundImageFix" result="shape"/>
<feGaussianBlur stdDeviation="3" result="effect1_foregroundBlur_694_220"/>
</filter>
<filter id="filter1_f_694_220" x="794" y="581" width="40" height="40" filterUnits="userSpaceOnUse" color-interpolation-filters="sRGB">
<feFlood flood-opacity="0" result="BackgroundImageFix"/>
<feBlend mode="normal" in="SourceGraphic" in2="BackgroundImageFix" result="shape"/>
<feGaussianBlur stdDeviation="2.5" result="effect1_foregroundBlur_694_220"/>
</filter>
<filter id="filter2_f_694_220" x="1320" y="660" width="57" height="57" filterUnits="userSpaceOnUse" color-interpolation-filters="sRGB">
<feFlood flood-opacity="0" result="BackgroundImageFix"/>
<feBlend mode="normal" in="SourceGraphic" in2="BackgroundImageFix" result="shape"/>
<feGaussianBlur stdDeviation="2.5" result="effect1_foregroundBlur_694_220"/>
</filter>
<filter id="filter3_f_694_220" x="128.5" y="88.4997" width="39.0001" height="39.0006" filterUnits="userSpaceOnUse" color-interpolation-filters="sRGB">
<feFlood flood-opacity="0" result="BackgroundImageFix"/>
<feBlend mode="normal" in="SourceGraphic" in2="BackgroundImageFix" result="shape"/>
<feGaussianBlur stdDeviation="2.25" result="effect1_foregroundBlur_694_220"/>
</filter>
<filter id="filter4_f_694_220" x="1262" y="410" width="40" height="40" filterUnits="userSpaceOnUse" color-interpolation-filters="sRGB">
<feFlood flood-opacity="0" result="BackgroundImageFix"/>
<feBlend mode="normal" in="SourceGraphic" in2="BackgroundImageFix" result="shape"/>
<feGaussianBlur stdDeviation="2.5" result="effect1_foregroundBlur_694_220"/>
</filter>
</defs>
</svg>
