<svg width="186" height="46" viewBox="0 0 186 46" fill="none" xmlns="http://www.w3.org/2000/svg">
<path d="M32.23 38C31.9807 38 31.7767 37.9207 31.618 37.762C31.4593 37.6033 31.38 37.3993 31.38 37.15V15.05C31.38 14.8007 31.4593 14.5967 31.618 14.438C31.7767 14.2793 31.9807 14.2 32.23 14.2H36.514C36.7633 14.2 36.9673 14.2793 37.126 14.438C37.2847 14.5967 37.364 14.8007 37.364 15.05V22.598L43.654 14.846C43.7447 14.71 43.892 14.574 44.096 14.438C44.3227 14.2793 44.6173 14.2 44.98 14.2H49.876C50.08 14.2 50.25 14.2793 50.386 14.438C50.522 14.574 50.59 14.7327 50.59 14.914C50.59 15.0727 50.5447 15.2087 50.454 15.322L42.328 25.59L51.1 36.878C51.1907 36.9687 51.236 37.1047 51.236 37.286C51.236 37.4673 51.1567 37.6373 50.998 37.796C50.862 37.932 50.7033 38 50.522 38H45.456C45.048 38 44.7307 37.9093 44.504 37.728C44.3 37.5467 44.164 37.4107 44.096 37.32L37.364 28.922V37.15C37.364 37.3993 37.2847 37.6033 37.126 37.762C36.9673 37.9207 36.7633 38 36.514 38H32.23Z" fill="#FFCC00"/>
<path d="M61.8477 38.34C60.0117 38.34 58.4477 38.0453 57.1557 37.456C55.8864 36.8667 54.9117 36.1073 54.2317 35.178C53.5517 34.2487 53.1891 33.2627 53.1437 32.22C53.1437 32.0387 53.2117 31.88 53.3477 31.744C53.4837 31.608 53.6537 31.54 53.8577 31.54H54.5377C54.7644 31.54 54.9344 31.608 55.0477 31.744C55.1837 31.88 55.2631 32.0387 55.2857 32.22C55.3764 32.8547 55.6597 33.4893 56.1357 34.124C56.6117 34.736 57.3144 35.2573 58.2437 35.688C59.1731 36.096 60.3744 36.3 61.8477 36.3C64.0691 36.3 65.6897 35.9033 66.7097 35.11C67.7297 34.294 68.2397 33.206 68.2397 31.846C68.2397 30.9393 67.9677 30.214 67.4237 29.67C66.9024 29.1033 66.0977 28.6047 65.0097 28.174C63.9217 27.7207 62.5277 27.222 60.8277 26.678C59.2184 26.1567 57.8924 25.624 56.8497 25.08C55.8071 24.5133 55.0364 23.8333 54.5377 23.04C54.0617 22.2467 53.8237 21.2267 53.8237 19.98C53.8237 18.824 54.1297 17.7927 54.7417 16.886C55.3537 15.9567 56.2377 15.22 57.3937 14.676C58.5724 14.132 60.0004 13.86 61.6777 13.86C63.0151 13.86 64.1824 14.0413 65.1797 14.404C66.1771 14.7667 67.0044 15.254 67.6617 15.866C68.3191 16.4553 68.8177 17.1013 69.1577 17.804C69.4977 18.484 69.6791 19.1527 69.7017 19.81C69.7017 19.9687 69.6451 20.1273 69.5317 20.286C69.4184 20.422 69.2371 20.49 68.9877 20.49H68.3077C68.1944 20.49 68.0471 20.4447 67.8657 20.354C67.7071 20.2633 67.6051 20.082 67.5597 19.81C67.4237 18.6767 66.8231 17.7473 65.7577 17.022C64.7151 16.274 63.3551 15.9 61.6777 15.9C60.0004 15.9 58.6291 16.2287 57.5637 16.886C56.4984 17.5433 55.9657 18.5747 55.9657 19.98C55.9657 20.8867 56.2037 21.6347 56.6797 22.224C57.1557 22.7907 57.9037 23.3007 58.9237 23.754C59.9437 24.1847 61.2584 24.6607 62.8677 25.182C64.5677 25.726 65.9731 26.27 67.0837 26.814C68.1944 27.358 69.0217 28.0267 69.5657 28.82C70.1097 29.5907 70.3817 30.5993 70.3817 31.846C70.3817 33.2287 70.0304 34.4073 69.3277 35.382C68.6477 36.334 67.6731 37.0707 66.4037 37.592C65.1344 38.0907 63.6157 38.34 61.8477 38.34ZM81.5497 38.34C79.963 38.34 78.6143 38.034 77.5037 37.422C76.393 36.7873 75.543 35.8807 74.9537 34.702C74.387 33.5233 74.081 32.1293 74.0357 30.52C74.013 30.18 74.0017 29.7267 74.0017 29.16C74.0017 28.5933 74.013 28.14 74.0357 27.8C74.081 26.168 74.387 24.774 74.9537 23.618C75.543 22.4393 76.393 21.544 77.5037 20.932C78.6143 20.2973 79.963 19.98 81.5497 19.98C82.751 19.98 83.7823 20.15 84.6437 20.49C85.5277 20.8073 86.253 21.238 86.8197 21.782C87.3863 22.3033 87.817 22.8813 88.1117 23.516C88.4063 24.1507 88.565 24.774 88.5877 25.386C88.6103 25.6127 88.5423 25.794 88.3837 25.93C88.225 26.066 88.0437 26.134 87.8397 26.134H87.3637C87.137 26.134 86.967 26.0887 86.8537 25.998C86.763 25.8847 86.661 25.692 86.5477 25.42C86.0717 24.128 85.4143 23.2327 84.5757 22.734C83.7597 22.2127 82.751 21.952 81.5497 21.952C80.0083 21.952 78.7277 22.428 77.7077 23.38C76.7103 24.3093 76.1777 25.8393 76.1097 27.97C76.0643 28.7633 76.0643 29.5567 76.1097 30.35C76.1777 32.4807 76.7103 34.022 77.7077 34.974C78.7277 35.9033 80.0083 36.368 81.5497 36.368C82.751 36.368 83.7597 36.1187 84.5757 35.62C85.4143 35.0987 86.0717 34.192 86.5477 32.9C86.661 32.628 86.763 32.4467 86.8537 32.356C86.967 32.2427 87.137 32.186 87.3637 32.186H87.8397C88.0437 32.186 88.225 32.254 88.3837 32.39C88.5423 32.526 88.6103 32.7073 88.5877 32.934C88.565 33.4327 88.463 33.9313 88.2817 34.43C88.1003 34.9287 87.817 35.416 87.4317 35.892C87.069 36.368 86.6157 36.7873 86.0717 37.15C85.5277 37.5127 84.8703 37.796 84.0997 38C83.3517 38.2267 82.5017 38.34 81.5497 38.34ZM93.8622 38C93.6355 38 93.4542 37.932 93.3182 37.796C93.1822 37.66 93.1142 37.4787 93.1142 37.252V14.608C93.1142 14.3813 93.1822 14.2 93.3182 14.064C93.4542 13.928 93.6355 13.86 93.8622 13.86H94.4402C94.6668 13.86 94.8482 13.928 94.9842 14.064C95.1202 14.2 95.1882 14.3813 95.1882 14.608V22.666C95.8002 21.8727 96.5368 21.2267 97.3982 20.728C98.2822 20.2293 99.4495 19.98 100.9 19.98C102.442 19.98 103.722 20.32 104.742 21C105.785 21.6573 106.556 22.564 107.054 23.72C107.576 24.8533 107.836 26.1453 107.836 27.596V37.252C107.836 37.4787 107.768 37.66 107.632 37.796C107.496 37.932 107.315 38 107.088 38H106.51C106.284 38 106.102 37.932 105.966 37.796C105.83 37.66 105.762 37.4787 105.762 37.252V27.766C105.762 25.9527 105.32 24.536 104.436 23.516C103.552 22.4733 102.26 21.952 100.56 21.952C98.9508 21.952 97.6475 22.4733 96.6502 23.516C95.6755 24.536 95.1882 25.9527 95.1882 27.766V37.252C95.1882 37.4787 95.1202 37.66 94.9842 37.796C94.8482 37.932 94.6668 38 94.4402 38H93.8622ZM119.9 38.34C118.268 38.34 116.897 38 115.786 37.32C114.698 36.64 113.859 35.7107 113.27 34.532C112.703 33.3533 112.397 32.0387 112.352 30.588C112.329 30.248 112.318 29.772 112.318 29.16C112.318 28.548 112.329 28.072 112.352 27.732C112.397 26.2587 112.703 24.944 113.27 23.788C113.859 22.6093 114.698 21.68 115.786 21C116.897 20.32 118.268 19.98 119.9 19.98C121.532 19.98 122.892 20.32 123.98 21C125.091 21.68 125.929 22.6093 126.496 23.788C127.085 24.944 127.403 26.2587 127.448 27.732C127.471 28.072 127.482 28.548 127.482 29.16C127.482 29.772 127.471 30.248 127.448 30.588C127.403 32.0387 127.085 33.3533 126.496 34.532C125.929 35.7107 125.091 36.64 123.98 37.32C122.892 38 121.532 38.34 119.9 38.34ZM119.9 36.368C121.487 36.368 122.779 35.858 123.776 34.838C124.773 33.818 125.306 32.3447 125.374 30.418C125.397 30.078 125.408 29.6587 125.408 29.16C125.408 28.6613 125.397 28.242 125.374 27.902C125.306 25.9527 124.773 24.4793 123.776 23.482C122.779 22.462 121.487 21.952 119.9 21.952C118.313 21.952 117.021 22.462 116.024 23.482C115.027 24.4793 114.494 25.9527 114.426 27.902C114.403 28.242 114.392 28.6613 114.392 29.16C114.392 29.6587 114.403 30.078 114.426 30.418C114.494 32.3447 115.027 33.818 116.024 34.838C117.021 35.858 118.313 36.368 119.9 36.368ZM138.859 38.34C137.227 38.34 135.856 38 134.745 37.32C133.657 36.64 132.818 35.7107 132.229 34.532C131.662 33.3533 131.356 32.0387 131.311 30.588C131.288 30.248 131.277 29.772 131.277 29.16C131.277 28.548 131.288 28.072 131.311 27.732C131.356 26.2587 131.662 24.944 132.229 23.788C132.818 22.6093 133.657 21.68 134.745 21C135.856 20.32 137.227 19.98 138.859 19.98C140.491 19.98 141.851 20.32 142.939 21C144.05 21.68 144.888 22.6093 145.455 23.788C146.044 24.944 146.362 26.2587 146.407 27.732C146.43 28.072 146.441 28.548 146.441 29.16C146.441 29.772 146.43 30.248 146.407 30.588C146.362 32.0387 146.044 33.3533 145.455 34.532C144.888 35.7107 144.05 36.64 142.939 37.32C141.851 38 140.491 38.34 138.859 38.34ZM138.859 36.368C140.446 36.368 141.738 35.858 142.735 34.838C143.732 33.818 144.265 32.3447 144.333 30.418C144.356 30.078 144.367 29.6587 144.367 29.16C144.367 28.6613 144.356 28.242 144.333 27.902C144.265 25.9527 143.732 24.4793 142.735 23.482C141.738 22.462 140.446 21.952 138.859 21.952C137.272 21.952 135.98 22.462 134.983 23.482C133.986 24.4793 133.453 25.9527 133.385 27.902C133.362 28.242 133.351 28.6613 133.351 29.16C133.351 29.6587 133.362 30.078 133.385 30.418C133.453 32.3447 133.986 33.818 134.983 34.838C135.98 35.858 137.272 36.368 138.859 36.368ZM151.868 38C151.641 38 151.46 37.932 151.324 37.796C151.188 37.66 151.12 37.4787 151.12 37.252V14.608C151.12 14.3813 151.188 14.2 151.324 14.064C151.46 13.928 151.641 13.86 151.868 13.86H152.446C152.673 13.86 152.854 13.928 152.99 14.064C153.126 14.2 153.194 14.3813 153.194 14.608V37.252C153.194 37.4787 153.126 37.66 152.99 37.796C152.854 37.932 152.673 38 152.446 38H151.868Z" fill="white"/>
<path d="M20.1252 21.9978L18.3124 14.7722L14.1551 5.48629C13.6263 4.12016 14.3057 2.58339 15.6718 2.05569C17.0369 1.52272 18.5747 2.20631 19.1035 3.57244L25.6371 20.1819L20.1252 21.9978Z" fill="#F2A91F"/>
<path d="M28.9192 19.3772C28.4052 16.6586 26.8252 12.5065 26.8252 12.5065L20.7298 1.45849C20.0704 0.150288 18.4736 -0.374255 17.1665 0.284057C15.8583 0.943422 15.3316 2.53917 15.992 3.84737L21.6061 13.9032C21.6198 13.9264 23.0944 19.6869 23.0944 19.6869C21.959 18.6388 20.3485 17.2021 18.8654 15.876C15.6023 12.9563 13.6663 11.8619 13.6663 11.8619C12.9185 11.3953 12.4245 11.329 11.4207 11.7998L5.23574 14.5046C5.07037 14.5868 4.93028 14.7027 4.81968 14.8512L2.3834 18.1017C1.44281 19.2255 1.59132 20.8982 2.71519 21.8377C3.83801 22.7783 5.50959 22.6277 6.4523 21.507C6.50285 21.4459 8.32717 18.8105 8.49148 18.7263C9.58375 18.1649 11.6145 17.2021 12.5024 17.2306C13.4473 17.2611 19.1182 23.5051 19.1182 23.5051C19.3352 23.7779 19.3605 24.156 19.1814 24.4552L16.111 29.9618C16.0278 30.0998 15.9078 30.2104 15.7635 30.281L12.9469 31.8609C12.7847 31.9399 12.6015 31.9652 12.4245 31.9315L6.87362 29.5384C6.59765 29.4194 6.36803 29.2013 6.25006 28.9243C5.42112 26.9757 5.3042 25.1124 5.30315 25.0914C5.23468 23.6273 3.99284 22.4971 2.52876 22.5655C1.06783 22.6245 -0.0655187 23.8748 0.00294571 25.3389C0.0166386 25.6159 0.372654 31.2795 4.98189 35.1261C7.64463 37.3465 10.9372 38.206 15.1452 37.6404C20.003 36.9884 23.0123 36.3416 27.2644 27.5729C28.441 25.1451 29.2689 21.2279 28.9192 19.3772Z" fill="#FFCC00"/>
</svg>
