<svg width="1320" height="758" viewBox="0 0 1320 758" fill="none" xmlns="http://www.w3.org/2000/svg">
<g clip-path="url(#clip0_30_721)">
<path opacity="0.967" fill-rule="evenodd" clip-rule="evenodd" d="M1164.02 235.908C1159.3 245.351 1153.28 253.945 1145.98 261.69C1153.18 271.137 1155.76 281.45 1153.71 292.629C1148.68 293.98 1144.38 296.558 1140.82 300.364C1139.31 299.825 1138.02 298.964 1136.95 297.786C1130.96 301.171 1127.52 306.327 1126.64 313.255C1121.43 307.967 1117.57 301.952 1115.04 295.207C1111.85 292.856 1108.41 292.426 1104.73 293.918C1107.85 296.221 1107.85 298.368 1104.73 300.364C1100.6 293.135 1098.02 285.4 1096.99 277.16C1090.78 276.074 1086.05 272.638 1082.81 266.847C1077.17 273.934 1072.87 273.073 1069.92 264.269C1067.77 266.416 1065.62 268.567 1063.48 270.714C1069.96 273.942 1076.83 275.231 1084.1 274.582C1083.58 280.094 1081 284.392 1076.37 287.473C1101.9 305.572 1103.62 325.767 1081.52 348.061C1073.64 350.678 1065.91 353.684 1058.32 357.085C1058.14 361.669 1057.28 366.395 1055.74 371.265C1044.7 371.949 1042.98 368.081 1050.59 359.663C1043.98 356.283 1039.68 358.431 1037.7 366.109C1040.72 373.029 1045.45 378.613 1051.88 382.867C1055.4 391.216 1056.26 399.811 1054.45 408.65C1048.5 412.453 1042.91 416.75 1037.7 421.541C1031.63 412.476 1024.33 404.741 1015.78 398.337C1015.13 403.32 1013.85 408.046 1011.91 412.517C1015.7 415.348 1017.85 419.215 1018.36 424.119C1028.83 429.399 1035.27 437.562 1037.7 448.612C1038.04 455.313 1038.04 462.189 1037.7 469.238C1043.19 471.61 1048.35 474.619 1053.16 478.262C1050.1 480.657 1046.66 481.516 1042.85 480.84C1042.85 484.277 1042.85 487.716 1042.85 491.153C1052.51 495.853 1062.39 497.573 1072.5 496.31C1076.64 497.003 1079.65 499.153 1081.52 502.755C1100.53 504.08 1119.44 504.08 1138.24 502.755C1141.68 504.475 1141.68 506.192 1138.24 507.912C1131.04 511.263 1124.16 515.131 1117.62 519.514C1114.81 517.216 1114.81 514.638 1117.62 511.779C1114.55 509.384 1111.12 508.525 1107.3 509.201C1105.07 518.413 1101.2 518.413 1095.7 509.201C1094.64 510.379 1093.35 511.24 1091.84 511.779C1076.46 508.499 1060.99 505.491 1045.43 502.755C1043.29 500.396 1040.72 498.679 1037.7 497.599C1038.55 496.74 1039.41 495.879 1040.27 495.02C1035.24 494.077 1030.95 491.929 1027.38 488.575C1024.79 485.525 1022.64 482.088 1020.94 478.262C1019.87 479.44 1018.58 480.301 1017.07 480.84C1005.22 466.376 997.487 450.907 993.867 434.432C1002.86 433.775 1009.74 437.211 1014.49 444.745C1016.78 438 1015.06 431.985 1009.34 426.697C1006.84 410.844 1002.97 395.374 997.734 380.289C994.813 384.7 990.946 385.99 986.133 384.156C986.715 378.611 984.996 373.026 980.977 367.398C976.32 362.221 971.164 357.923 965.508 354.507C961.994 356.306 958.988 356.306 956.484 354.507C948 365.575 938.548 375.888 928.125 385.446C926.405 394.039 926.405 402.635 928.125 411.228C934.642 417.673 936.79 424.98 934.57 433.143C931.237 434.406 927.798 434.837 924.258 434.432C924.678 428.355 924.25 422.34 922.969 416.384C920.135 422.93 915.838 424.648 910.078 421.541C900.472 401.743 893.166 381.117 888.164 359.663C875.552 356.99 866.098 349.683 859.805 337.748C853.297 338.06 846.852 338.488 840.469 339.037C833.345 337.96 826.47 336.243 819.844 333.881C818.124 335.601 818.124 337.318 819.844 339.037C826.493 341.278 831.218 345.573 834.023 351.929C827.609 368.226 816.438 379.828 800.508 386.735C788.764 393.038 776.732 398.625 764.414 403.493C765.703 407.054 768.281 408.771 772.148 408.65C780.3 407.257 788.035 404.679 795.352 400.915C797.112 401.851 798.832 402.709 800.508 403.493C797.27 416.864 792.541 429.755 786.328 442.167C772.375 454.39 760.343 468.14 750.234 483.418C749.672 490.962 748.383 498.269 746.367 505.333C750.093 515.739 752.671 526.483 754.102 537.561C752.483 542.094 749.904 545.961 746.367 549.163C738.411 551.981 731.966 556.707 727.031 563.344C727.856 570.975 727.856 578.71 727.031 586.548C724.056 589.752 720.617 592.331 716.719 594.282C707.291 628.279 685.376 642.89 650.977 638.112C640.383 612.941 631.36 587.159 623.906 560.765C621.07 546.497 623.22 533.176 630.352 520.803C629.895 503.137 623.45 488.095 611.016 475.684C611.214 466.069 610.784 456.615 609.727 447.323C606.506 442.231 602.639 441.37 598.125 444.745C595.513 438.696 591.218 434.398 585.234 431.854C568.27 438.799 550.651 441.806 532.383 440.878C520.616 434.852 512.451 425.828 507.891 413.806C504.915 410.601 501.476 408.023 497.578 406.071C496.616 400.404 495.327 394.817 493.711 389.313C499.189 376.321 500.479 362.999 497.578 349.35C503.167 341.136 508.754 332.971 514.336 324.857C507.777 322.024 507.777 319.017 514.336 315.833C515.194 317.553 516.056 319.27 516.914 320.99C527.214 317.989 531.939 311.113 531.094 300.364C536.681 294.777 542.265 289.192 547.852 283.605C546.238 281.672 544.949 279.522 543.984 277.16C541.406 280.597 538.828 280.597 536.25 277.16C535.214 273.623 533.925 270.186 532.383 266.847C536.173 259.607 538.32 251.872 538.828 243.643C548.522 241.432 558.406 241.432 568.477 243.643C568.889 239.262 568.461 234.965 567.188 230.752C562.972 227.592 559.105 224.154 555.586 220.439C563.001 218.772 569.874 215.764 576.211 211.415C568.513 211.744 560.778 211.744 553.008 211.415C559.525 208.022 559.525 205.014 553.008 202.391C548.308 205.607 543.152 207.326 537.539 207.548C537.201 194.305 543.216 185.281 555.586 180.476C551.832 179.387 550.543 177.238 551.719 174.031C557.37 171.711 562.954 169.133 568.477 166.296C572.48 170.847 573.339 175.574 571.055 180.476C575.309 187.729 580.465 194.175 586.523 199.813C585.985 201.324 585.124 202.613 583.945 203.68C591.669 198.755 600.262 194.458 609.727 190.789C605.777 184.782 606.638 179.625 612.305 175.32C597.241 174.936 592.943 167.631 599.414 153.405C610.771 148.486 620.222 141.181 627.773 131.49C621.609 129.707 621.609 127.129 627.773 123.755C640.218 119.679 652.681 115.812 665.156 112.153C680.651 117.887 696.548 122.614 712.852 126.333C717.577 127.622 720.586 130.63 721.875 135.357C727.091 131.457 726.66 128.019 720.586 125.044C721.444 124.185 722.306 123.325 723.164 122.466C727.214 124.553 731.512 125.412 736.055 125.044C739.435 118.255 743.302 118.255 747.656 125.044C752.307 120.096 757.463 119.237 763.125 122.466C771.731 121.304 773.02 118.726 766.992 114.731C776.33 112.603 785.784 111.314 795.352 110.864C789.798 101.464 791.087 92.4407 799.219 83.7925C804.097 85.4168 808.394 87.995 812.109 91.5272C813.855 85.8835 816.863 85.0239 821.133 88.949C826.356 86.7067 829.793 82.8393 831.445 77.3469C834.709 76.549 837.718 75.2599 840.469 73.4796C841.173 68.7643 843.323 64.8969 846.914 61.8776C854.7 57.4956 862.434 53.1985 870.117 48.9864C871.496 43.5497 874.075 42.2606 877.852 45.1191C880.211 42.9845 881.928 40.4063 883.008 37.3844C876.689 30.3953 868.524 28.6764 858.516 32.2279C850.696 31.6323 843.392 29.4839 836.602 25.7823C844.011 24.7342 851.318 21.7263 858.516 16.7585C865.033 16.9078 870.189 19.486 873.984 24.4932C883.688 20.1026 890.134 23.1105 893.32 33.517C903.249 39.11 913.133 44.696 922.969 50.2755C923.616 55.2592 924.905 59.9859 926.836 64.4558C936.821 65.1527 946.703 66.4418 956.484 68.3231C960.903 66.8376 963.912 63.8295 965.508 59.2993C974.835 56.8088 983.428 58.0979 991.289 63.1667C993.042 69.3258 995.192 75.3416 997.734 81.2143C999.454 79.4954 1001.17 77.7767 1002.89 76.0578C1007.34 78.8325 1012.07 79.2623 1017.07 77.3469C1018.67 71.6431 1021.68 66.9165 1026.09 63.1667C1040.01 66.4578 1051.61 73.3329 1060.9 83.7925C1072.55 79.2226 1082.86 80.9415 1091.84 88.949C1109.1 82.0607 1127.15 77.7636 1145.98 76.0578C1165.92 78.7485 1185.69 82.1863 1205.27 86.3708C1215.97 80.3248 1226.71 80.3248 1237.5 86.3708C1237.51 91.1879 1236.22 95.9146 1233.63 100.551C1237.93 108.694 1235.35 112.562 1225.9 112.153C1219.58 111.48 1213.57 109.761 1207.85 106.997C1190.09 113.532 1189.23 123.415 1205.27 136.646C1204.84 137.935 1204.41 139.224 1203.98 140.514C1191.49 143.966 1182.47 151.701 1176.91 163.718C1167.83 159.424 1162.68 162.432 1161.45 172.742C1163.52 177.825 1166.96 181.692 1171.76 184.344C1168.75 187.967 1169.61 190.976 1174.34 193.367C1172.9 203.534 1170.32 213.417 1166.6 223.017C1164.45 217.861 1162.3 212.704 1160.16 207.548C1143.34 194.304 1138.18 177.975 1144.69 158.561C1143.62 159.741 1142.33 160.6 1140.82 161.139C1136.41 150.966 1132.12 150.966 1127.93 161.139C1129.01 164.161 1130.73 166.74 1133.09 168.874C1126.07 174.172 1119.63 174.172 1113.75 168.874C1105.69 170.688 1097.52 171.978 1089.26 172.742C1086.54 178.883 1084.82 185.329 1084.1 192.078C1093.46 196.775 1102.91 198.923 1112.46 198.524C1118.05 205.829 1123.63 213.134 1129.22 220.439C1128.09 227.331 1131.1 232.917 1138.24 237.197C1134.81 238.916 1134.81 240.635 1138.24 242.354C1141.1 243.998 1144.11 245.287 1147.27 246.221C1152.57 242.174 1158.16 238.736 1164.02 235.908ZM736.055 125.044C745.705 124.939 746.135 126.658 737.344 130.201C736.148 128.668 735.717 126.949 736.055 125.044ZM699.961 140.514C701.897 137.746 704.475 137.316 707.695 139.224C705.499 143.681 702.921 144.11 699.961 140.514ZM648.398 150.827C652.719 152.589 654.439 156.026 653.555 161.139C643.039 161.052 641.319 157.615 648.398 150.827ZM635.508 189.5C637.944 183.624 642.242 179.327 648.398 176.609C641.881 173.986 641.881 170.978 648.398 167.585C653.22 163.552 658.376 163.552 663.867 167.585C657.064 173.051 653.627 179.497 653.555 186.922C647.785 186.347 641.768 187.207 635.508 189.5ZM1115.04 295.207C1113.76 290.097 1112.47 284.941 1111.17 279.738C1106.83 275.827 1102.96 271.529 1099.57 266.847C1101.66 262.797 1102.52 258.499 1102.15 253.956C1106.39 254.506 1110.25 253.647 1113.75 251.378C1116.33 242.784 1118.91 234.189 1121.48 225.595C1129.8 240.339 1136.25 255.809 1140.82 272.003C1136.73 276.317 1135.01 281.473 1135.66 287.473C1127.19 286.225 1120.31 288.803 1115.04 295.207ZM697.383 230.752C703.194 232.696 707.92 236.133 711.562 241.065C723.958 239.27 734.701 243.137 743.789 252.667C739.661 253.372 735.794 254.661 732.188 256.534C726.668 253.264 720.653 251.545 714.141 251.378C689.409 258.903 683.822 252.028 697.383 230.752ZM772.148 230.752C776.529 230.339 780.826 230.768 785.039 232.041C780.873 233.627 777.436 236.205 774.727 239.775C783.727 249.156 790.6 259.899 795.352 272.003C794.557 274.087 793.268 275.806 791.484 277.16C785.867 275.572 781.141 272.563 777.305 268.136C779.024 265.558 780.741 262.98 782.461 260.401C775.085 254.679 769.929 247.374 766.992 238.486C768.779 235.862 770.496 233.284 772.148 230.752ZM676.758 277.16C683.216 273.96 687.083 276.539 688.359 284.895C693.516 283.175 698.672 281.458 703.828 279.738C709.265 281.117 710.554 283.696 707.695 287.473C713.671 290.912 717.969 289.195 720.586 282.316C721.444 284.036 722.306 285.753 723.164 287.473C720.671 293.305 718.951 299.32 718.008 305.52C699.481 307.665 681.863 304.229 665.156 295.207C659.031 297.466 655.163 301.761 653.555 308.099C642.469 300.805 630.437 295.22 617.461 291.34C619.841 286.078 620.699 280.491 620.039 274.582C599.685 272.725 580.349 276.165 562.031 284.895C559.301 284.559 557.153 283.27 555.586 281.027C568.556 280.945 575.863 274.499 577.5 261.69C584.376 258.254 589.532 253.096 592.969 246.221C599.984 249.215 605.999 247.496 611.016 241.065C612.864 242.468 614.153 244.187 614.883 246.221C623.019 252.471 630.754 259.347 638.086 266.847C633.788 268.567 629.493 270.284 625.195 272.003C629.527 275.275 632.535 279.573 634.219 284.895C640.125 275.087 645.709 266.922 650.977 260.401C642.464 254.469 634.729 247.594 627.773 239.775C628.632 239.346 629.493 238.916 630.352 238.486C637.431 243.96 644.735 249.116 652.266 253.956C654.965 262.673 658.832 270.835 663.867 278.449C668.082 279.841 671.519 278.552 674.18 274.582C675.745 274.901 676.603 275.76 676.758 277.16ZM674.18 261.69C678.751 263.789 680.04 267.229 678.047 272.003C676.758 268.995 674.61 266.847 671.602 265.558C673.035 264.57 673.894 263.281 674.18 261.69ZM782.461 313.255C787.279 317.945 792.436 322.671 797.93 327.435C802.807 329.944 807.964 331.664 813.398 332.592C810.003 336.869 805.708 339.878 800.508 341.616C796.7 333.432 791.116 326.559 783.75 320.99C782.505 318.546 782.077 315.967 782.461 313.255ZM720.586 323.568C732.765 343.276 745.656 362.613 759.258 381.578C757.422 385.252 756.992 389.12 757.969 393.18C750.113 385.33 743.24 376.736 737.344 367.398C732.004 352.666 726.418 338.055 720.586 323.568ZM715.43 465.371C720.962 465.876 721.39 468.454 716.719 473.105C715.474 470.661 715.046 468.083 715.43 465.371Z" fill="white"/>
<path opacity="0.043" fill-rule="evenodd" clip-rule="evenodd" d="M1042.85 24.4932C1043.88 21.8505 1045.59 21.4207 1048.01 23.2041C1046.48 24.4013 1044.76 24.831 1042.85 24.4932Z" fill="white"/>
<path opacity="0.695" fill-rule="evenodd" clip-rule="evenodd" d="M1024.8 45.119C1018.21 45.4037 1012.19 43.685 1006.76 39.9626C1017.67 26.7159 1030.56 24.5672 1045.43 33.517C1049.39 36.3778 1051.11 40.2452 1050.59 45.119C1044.37 46.0557 1040.5 43.4775 1038.98 37.3843C1034.55 40.9134 1029.83 43.4917 1024.8 45.119Z" fill="white"/>
<path opacity="0.374" fill-rule="evenodd" clip-rule="evenodd" d="M803.086 39.9626C807.822 40.3222 808.681 42.0409 805.664 45.119C803.607 43.9411 802.748 42.2221 803.086 39.9626Z" fill="white"/>
<path opacity="0.558" fill-rule="evenodd" clip-rule="evenodd" d="M1024.8 45.119C1031.17 47.9724 1033.75 53.1288 1032.54 60.5884C1028.73 61.2639 1025.29 60.4046 1022.23 58.0102C1022.43 53.8121 1023.29 49.5152 1024.8 45.119Z" fill="white"/>
<path opacity="0.212" fill-rule="evenodd" clip-rule="evenodd" d="M1009.34 50.2755C1014.07 50.6352 1014.93 52.3538 1011.91 55.432C1009.86 54.254 1009 52.5351 1009.34 50.2755Z" fill="white"/>
<path opacity="0.951" fill-rule="evenodd" clip-rule="evenodd" d="M318.398 83.7925C310.674 86.3047 306.377 91.4612 305.508 99.2619C302.93 99.2619 300.352 99.2619 297.773 99.2619C297.773 101.84 297.773 104.418 297.773 106.997C288.281 106.57 278.829 107 269.414 108.286C279.868 108.883 290.181 110.172 300.352 112.153C304.724 120.183 311.169 126.199 319.688 130.201C321.544 134.358 321.116 138.225 318.398 141.803C323.918 145.174 329.074 149.041 333.867 153.405C329.987 158.571 325.689 163.298 320.977 167.585C319.847 172.536 318.128 177.263 315.82 181.765C310.048 178.445 304.033 175.867 297.773 174.031C300.674 178.23 304.113 182.097 308.086 185.633C301.824 186.796 301.393 188.944 306.797 192.078C310.001 186.063 314.297 184.345 319.688 186.922C322.774 193.597 325.352 200.472 327.422 207.548C339.655 212.96 344.811 222.414 342.891 235.908C352.837 240.429 354.126 246.445 346.758 253.956C339.761 254.625 332.885 252.906 326.133 248.799C327.177 243.257 328.466 238.1 330 233.33C325.29 236.317 320.995 239.755 317.109 243.643C312.951 240.749 309.942 242.038 308.086 247.51C311.133 251.837 314.139 251.408 317.109 246.221C323.56 248.801 324.849 253.098 320.977 259.112C314.428 261.438 307.983 264.016 301.641 266.847C297.18 261.265 292.024 260.404 286.172 264.269C283.455 266.801 282.165 269.809 282.305 273.293C266.24 276.466 255.928 285.921 251.367 301.653C241.921 304.236 233.757 308.965 226.875 315.833C226.391 320.928 226.82 326.084 228.164 331.303C227.779 342.033 223.912 343.75 216.562 336.459C217.541 327.121 213.673 321.534 204.961 319.701C198.162 318.528 191.717 319.817 185.625 323.568C158.434 319.819 146.402 331.852 149.531 359.663C154.101 370.639 161.406 372.786 171.445 366.109C174.358 355.667 181.233 351.369 192.07 353.218C193.416 354.664 194.275 356.384 194.648 358.374C190.433 366.318 186.996 374.48 184.336 382.867C191.089 382.176 197.534 383.035 203.672 385.446C203.672 394.039 203.672 402.635 203.672 411.228C208.369 417.222 213.955 418.081 220.43 413.806C224.372 413.881 227.38 415.601 229.453 418.963C237.679 407.618 248.851 400.745 262.969 398.337C265.72 400.118 268.728 401.407 271.992 402.204C270.814 403.271 269.953 404.561 269.414 406.071C276.081 411.089 282.096 411.089 287.461 406.071C292.383 408.258 297.539 409.119 302.93 408.65C307.398 423.83 317.71 431.996 333.867 433.143C338.472 435.167 342.339 438.173 345.469 442.167C349.733 448.604 351.881 455.05 351.914 461.503C367.403 469.535 383.731 475.55 400.898 479.551C404.735 483.978 409.46 486.987 415.078 488.575C420.234 497.168 420.234 505.764 415.078 514.357C409.811 518.761 405.513 523.917 402.188 529.827C401.638 545.654 399.06 561.124 394.453 576.235C384.416 580.241 374.962 585.398 366.094 591.704C364.137 609.401 357.692 625.301 346.758 639.401C343.05 639.966 339.614 641.255 336.445 643.269C339.988 656.088 334.831 662.103 320.977 661.316C320.977 664.753 320.977 668.192 320.977 671.629C311.809 671.049 310.948 673.197 318.398 678.075C317.548 684.5 314.97 690.087 310.664 694.833C319.592 701.155 320.451 708.89 313.242 718.037C319.584 729.116 329.036 735.562 341.602 737.374C336.353 738.545 331.624 740.692 327.422 743.82C303.76 740.847 287.861 728.384 279.727 706.435C283.295 701.39 281.575 698.811 274.57 698.701C276.308 694.186 277.166 689.891 277.148 685.809C275.429 684.951 273.712 684.09 271.992 683.231C271.649 676.53 271.649 669.654 271.992 662.605C266.001 654.182 265.142 645.159 269.414 635.534C265.511 611.644 263.361 587.581 262.969 563.344C262.327 560.446 261.038 557.867 259.102 555.609C250.708 549.908 242.544 543.891 234.609 537.561C227.198 520.571 218.174 504.671 207.539 489.864C207.383 485.453 209.101 482.016 212.695 479.551C208.031 466.044 211.899 455.303 224.297 447.323C226.709 438.836 225.42 431.101 220.43 424.119C217.852 425.839 215.273 427.556 212.695 429.275C204.404 425.418 196.67 421.121 189.492 416.384C190.573 409.101 187.995 403.516 181.758 399.626C170.874 396.981 161.85 391.394 154.688 382.867C150.237 385.642 145.511 386.072 140.508 384.156C131.914 379.859 123.32 375.563 114.727 371.265C106.301 358.547 98.9967 345.225 92.8125 331.303C90.6296 339.264 91.9187 346.568 96.6797 353.218C91.6162 357.843 87.7491 356.554 85.0781 349.35C84.9263 340.785 81.9184 333.479 76.0547 327.435C78.1381 326.641 79.8567 325.352 81.2109 323.568C79.2941 315.98 78.005 308.246 77.3438 300.364C69.7094 296.968 66.7018 290.951 68.3203 282.316C68.4286 275.203 69.7177 268.329 72.1875 261.69C82.0947 252.18 89.3993 241.007 94.1016 228.173C90.2865 221.13 91.1457 214.684 96.6797 208.837C93.6478 203.901 91.0697 204.331 88.9453 210.126C85.6255 202.576 87.3443 196.13 94.1016 190.789C92.5225 185.253 90.8036 179.667 88.9453 174.031C82.987 172.191 77.4012 169.613 72.1875 166.296C53.5626 173.59 35.086 181.754 16.7578 190.789C10.6583 191.923 4.64266 193.212 -1.28906 194.656C-1.28906 192.938 -1.28906 191.219 -1.28906 189.5C8.41335 186.405 17.8665 182.537 27.0703 177.898C24.6262 176.653 22.0481 176.223 19.3359 176.609C17.3685 169.799 16.9388 162.924 18.0469 155.983C23.3775 150.668 29.8227 147.66 37.3828 146.959C34.9388 145.714 32.3606 145.285 29.6484 145.67C29.098 141.432 29.9573 137.564 32.2266 134.068C38.0016 131.549 44.0171 130.26 50.2734 130.201C49.6562 125.129 50.5155 120.402 52.8516 116.02C67.2777 109.932 82.3167 105.205 97.9688 101.84C111.527 106.842 124.848 112.428 137.93 118.599C148.094 119.411 157.977 118.122 167.578 114.731C168.396 119.374 170.115 120.233 172.734 117.31C177.858 119.161 182.585 121.739 186.914 125.044C194.579 116.861 193.29 114.283 183.047 117.31C179.692 115.767 177.544 113.189 176.602 109.575C181.955 104.202 187.97 99.9044 194.648 96.6837C204.518 99.2593 213.541 103.556 221.719 109.575C227.091 103.482 231.817 103.482 235.898 109.575C242.859 105.251 249.734 103.532 256.523 104.418C252.681 102.501 248.814 100.782 244.922 99.2619C234.934 101.471 224.192 101.901 212.695 100.551C207.928 97.733 203.631 94.2955 199.805 90.2381C206.525 84.8112 214.259 82.6625 223.008 83.7925C223.008 85.5114 223.867 86.3708 225.586 86.3708C225.006 95.5395 227.154 96.3988 232.031 88.949C234.756 91.8557 237.763 93.1448 241.055 92.8163C240.747 89.5131 242.036 86.5051 244.922 83.7925C246.167 86.2367 246.596 88.8149 246.211 91.5272C252.053 90.6021 256.779 92.3208 260.391 96.6837C266.034 87.8308 263.887 85.2526 253.945 88.949C250.207 85.4689 248.488 81.1717 248.789 76.0578C255.847 76.963 262.721 78.6819 269.414 81.2143C268.053 74.762 270.631 69.176 277.148 64.4558C302.329 52.8125 327.249 52.8125 351.914 64.4558C358.169 64.3323 364.183 64.7621 369.961 65.7449C384.664 59.0619 400.133 55.6243 416.367 55.432C432.653 59.6409 448.98 63.9381 465.352 68.3231C456.243 74.4756 449.367 80.9211 444.727 87.6599C447.171 88.9046 449.749 89.3344 452.461 88.949C451.44 95.509 453.16 101.095 457.617 105.707C447.444 110.142 444.007 117.447 447.305 127.622C441.55 139.121 432.099 145.567 418.945 146.959C412.853 156.291 404.26 161.017 393.164 161.139C390.573 169.444 388.423 178.038 386.719 186.922C384.999 188.641 383.282 190.359 381.562 192.078C375.548 188.641 369.53 185.203 363.516 181.765C355.451 170.862 352.012 158.83 353.203 145.67C355.137 144.057 357.287 142.767 359.648 141.803C355.668 141.056 352.231 139.337 349.336 136.646C349.565 128.804 349.993 120.64 350.625 112.153C349.426 108.464 347.276 105.456 344.18 103.129C332.869 104.025 323.418 100.588 315.82 92.8163C317.978 90.209 318.837 87.2012 318.398 83.7925ZM318.398 83.7925C323.599 77.3059 329.613 76.0168 336.445 79.9252C330.67 82.4441 324.656 83.7332 318.398 83.7925ZM269.414 86.3708C269.569 84.9705 270.427 84.1112 271.992 83.7925C274.784 86.0227 275.212 88.6009 273.281 91.5272C272.565 89.1661 271.275 87.4472 269.414 86.3708ZM235.898 109.575C236.23 113.999 237.09 118.296 238.477 122.466C235.898 122.466 233.32 122.466 230.742 122.466C229.763 116.799 231.482 112.502 235.898 109.575ZM259.102 117.31C264.384 117.84 265.245 119.989 261.68 123.755C264.242 127.181 266.82 130.618 269.414 134.068C268.556 135.357 267.694 136.646 266.836 137.935C260.71 132.452 258.132 125.577 259.102 117.31ZM238.477 122.466C240.736 122.128 242.455 122.988 243.633 125.044C233.418 132.788 231.699 131.929 238.477 122.466ZM297.773 148.248C294.731 154.47 289.575 157.048 282.305 155.983C283.284 164.469 279.848 170.485 271.992 174.031C272.312 175.595 273.17 176.454 274.57 176.609C271.933 184.066 271.933 191.371 274.57 198.524C270.425 199.732 266.127 201.451 261.68 203.68C262.538 204.54 263.399 205.399 264.258 206.258C262.688 211.282 260.968 216.008 259.102 220.439C257.712 215.27 255.994 210.113 253.945 204.969C222.245 191.829 221.385 178.078 251.367 163.718C256.386 165.721 261.112 168.299 265.547 171.452C269.081 168.665 272.949 166.516 277.148 165.007C274.751 161.929 273.031 158.491 271.992 154.694C277.749 149.545 281.616 143.099 283.594 135.357C284.749 139.803 286.899 141.522 290.039 140.514C287.402 146.688 289.98 149.266 297.773 148.248ZM297.773 174.031C293.685 172.36 289.387 171.071 284.883 170.163C288.319 168.444 288.319 166.726 284.883 165.007C293.715 161.815 298.011 164.823 297.773 174.031ZM225.586 238.486C230.322 238.846 231.182 240.565 228.164 243.643C226.108 242.465 225.248 240.746 225.586 238.486Z" fill="white"/>
<path opacity="0.635" fill-rule="evenodd" clip-rule="evenodd" d="M1145.98 55.432C1149.41 55.432 1152.85 55.432 1156.29 55.432C1155.19 62.5131 1150.89 66.8102 1143.4 68.3231C1140.35 63.2518 1141.2 58.9549 1145.98 55.432Z" fill="white"/>
<path opacity="0.577" fill-rule="evenodd" clip-rule="evenodd" d="M748.945 58.0102C753.555 57.2749 757.853 58.1342 761.836 60.5884C757.538 63.5965 753.243 66.6042 748.945 69.6123C737.761 71.7553 726.16 74.7633 714.141 78.6361C711.41 78.3006 709.263 77.0115 707.695 74.7687C720.142 73.1643 731.314 68.4374 741.211 60.5884C744.877 63.8803 747.455 63.021 748.945 58.0102Z" fill="white"/>
<path opacity="0.757" fill-rule="evenodd" clip-rule="evenodd" d="M661.289 70.9013C651.528 71.2571 651.528 72.976 661.289 76.0578C656.03 82.8486 650.443 82.8486 644.531 76.0578C642.611 79.9004 639.602 82.4786 635.508 83.7925C627.98 80.5728 621.965 75.4163 617.461 68.3231C618 66.8123 618.861 65.5232 620.039 64.4558C634.781 59.7889 649.391 59.7889 663.867 64.4558C664.726 65.3151 665.587 66.1747 666.445 67.034C664.084 67.7518 662.367 69.0409 661.289 70.9013Z" fill="white"/>
<path opacity="0.396" fill-rule="evenodd" clip-rule="evenodd" d="M674.18 65.7449C676.688 66.9997 679.266 68.2888 681.914 69.6123C677.642 71.482 675.064 70.1929 674.18 65.7449Z" fill="white"/>
<path opacity="0.2" fill-rule="evenodd" clip-rule="evenodd" d="M261.68 70.9014C266.416 71.261 267.274 72.9797 264.258 76.0578C262.2 74.8798 261.342 73.1609 261.68 70.9014Z" fill="white"/>
<path opacity="0.294" fill-rule="evenodd" clip-rule="evenodd" d="M661.289 70.9014C665.1 70.2259 668.536 71.0852 671.602 73.4796C668.093 74.2211 664.656 75.0807 661.289 76.0578C661.289 74.3389 661.289 72.6203 661.289 70.9014Z" fill="white"/>
<path opacity="0.738" fill-rule="evenodd" clip-rule="evenodd" d="M774.727 70.9014C778.537 70.2259 781.974 71.0852 785.039 73.4796C776.07 81.1591 767.474 89.3236 759.258 97.9728C755.416 104.504 757.136 109.231 764.414 112.153C741.907 120.129 736.32 113.254 747.656 91.5272C757.087 84.9123 766.111 78.0369 774.727 70.9014Z" fill="white"/>
<path opacity="0.677" fill-rule="evenodd" clip-rule="evenodd" d="M225.586 86.3707C223.867 86.3707 223.008 85.5114 223.008 83.7925C228.23 78.6301 234.246 77.7708 241.055 81.2143C237.129 85.81 231.973 87.5289 225.586 86.3707Z" fill="white"/>
<path opacity="0.482" fill-rule="evenodd" clip-rule="evenodd" d="M640.664 96.6837C642.152 93.4008 643.869 93.4008 645.82 96.6837C644.609 99.1665 642.889 99.1665 640.664 96.6837Z" fill="white"/>
<path opacity="0.565" fill-rule="evenodd" clip-rule="evenodd" d="M1241.37 109.575C1246.95 108.585 1251.25 110.303 1254.26 114.731C1250.27 117.186 1245.98 118.045 1241.37 117.31C1241.37 114.731 1241.37 112.153 1241.37 109.575Z" fill="white"/>
<path opacity="0.114" fill-rule="evenodd" clip-rule="evenodd" d="M24.4922 132.779C27.9296 134.498 27.9296 134.498 24.4922 132.779V132.779Z" fill="white"/>
<path opacity="0.79" fill-rule="evenodd" clip-rule="evenodd" d="M465.352 148.248C481.297 152.686 482.156 159.132 467.93 167.585C455.658 171.385 446.204 167.948 439.57 157.272C443.12 150.957 447.849 149.668 453.75 153.405C458.205 152.376 462.072 150.657 465.352 148.248Z" fill="white"/>
<path opacity="0.345" fill-rule="evenodd" clip-rule="evenodd" d="M555.586 155.983C559.023 157.702 559.023 157.702 555.586 155.983V155.983Z" fill="white"/>
<path opacity="0.435" fill-rule="evenodd" clip-rule="evenodd" d="M576.211 158.561C579.501 160.847 579.501 163.425 576.211 166.296C573.473 163.912 573.473 161.334 576.211 158.561Z" fill="white"/>
<path opacity="0.244" fill-rule="evenodd" clip-rule="evenodd" d="M1182.07 186.922C1185.02 187.974 1187.6 189.693 1189.8 192.078C1184.92 195.016 1182.34 193.297 1182.07 186.922Z" fill="white"/>
<path opacity="0.392" fill-rule="evenodd" clip-rule="evenodd" d="M1164.02 235.908C1163.69 234.003 1164.12 232.284 1165.31 230.752C1167.1 233.167 1166.67 234.886 1164.02 235.908Z" fill="white"/>
<path opacity="0.533" fill-rule="evenodd" clip-rule="evenodd" d="M614.883 246.221C614.883 253.096 614.883 259.971 614.883 266.847C612.305 266.847 609.727 266.847 607.148 266.847C606.651 258.31 609.229 251.435 614.883 246.221Z" fill="white"/>
<path opacity="0.277" fill-rule="evenodd" clip-rule="evenodd" d="M583.945 261.69C588.681 262.049 589.54 263.769 586.523 266.847C584.466 265.669 583.608 263.949 583.945 261.69Z" fill="white"/>
<path opacity="0.38" fill-rule="evenodd" clip-rule="evenodd" d="M671.602 282.316C676.263 282.293 680.561 283.582 684.492 286.184C682.345 286.614 680.194 287.042 678.047 287.473C674.499 286.998 672.352 285.279 671.602 282.316Z" fill="white"/>
<path opacity="0.263" fill-rule="evenodd" clip-rule="evenodd" d="M1125.35 320.99C1128.79 322.709 1128.79 322.709 1125.35 320.99V320.99Z" fill="white"/>
<path opacity="0.422" fill-rule="evenodd" clip-rule="evenodd" d="M1122.77 328.724C1125.42 329.748 1125.85 331.465 1124.06 333.881C1122.87 332.349 1122.44 330.63 1122.77 328.724Z" fill="white"/>
<path opacity="0.301" fill-rule="evenodd" clip-rule="evenodd" d="M235.898 339.037C234.376 337.359 232.657 335.639 230.742 333.881C235.135 330.47 238.573 331.328 241.055 336.459C239.877 338.517 238.158 339.375 235.898 339.037Z" fill="white"/>
<path opacity="0.619" fill-rule="evenodd" clip-rule="evenodd" d="M1096.99 333.881C1103.16 339.713 1103.59 346.587 1098.28 354.507C1090.28 348.01 1089.85 341.134 1096.99 333.881Z" fill="white"/>
<path opacity="0.225" fill-rule="evenodd" clip-rule="evenodd" d="M1107.3 341.616C1108.33 338.973 1110.05 338.542 1112.46 340.327C1110.93 341.523 1109.21 341.953 1107.3 341.616Z" fill="white"/>
<path opacity="0.514" fill-rule="evenodd" clip-rule="evenodd" d="M235.898 339.037C236.463 342.067 235.604 344.645 233.32 346.772C229.974 342.771 230.833 340.192 235.898 339.037Z" fill="white"/>
<path opacity="0.28" fill-rule="evenodd" clip-rule="evenodd" d="M241.055 344.194C241.209 342.794 242.069 341.935 243.633 341.616C253.476 353.731 252.617 354.589 241.055 344.194Z" fill="white"/>
<path opacity="0.637" fill-rule="evenodd" clip-rule="evenodd" d="M248.789 359.663C255.293 361.607 262.167 363.324 269.414 364.82C271.698 366.947 272.557 369.525 271.992 372.554C262.306 375.932 252.853 375.073 243.633 369.976C245.891 368.04 248.469 366.751 251.367 366.109C244.338 365.64 237.464 364.35 230.742 362.241C226.244 357.191 220.658 353.754 213.984 351.929C212.239 357.572 209.231 358.431 204.961 354.507C201.838 352.511 201.838 350.364 204.961 348.061C208.828 346.772 212.695 345.483 216.562 344.194C228.238 347.669 238.98 352.826 248.789 359.663Z" fill="white"/>
<path opacity="0.178" fill-rule="evenodd" clip-rule="evenodd" d="M253.945 354.507C255.88 351.74 258.46 351.31 261.68 353.218C259.236 354.463 256.658 354.891 253.945 354.507Z" fill="white"/>
<path opacity="0.252" fill-rule="evenodd" clip-rule="evenodd" d="M253.945 354.507C253.945 357.944 252.226 359.663 248.789 359.663C248.789 356.227 250.508 354.507 253.945 354.507Z" fill="white"/>
<path opacity="0.649" fill-rule="evenodd" clip-rule="evenodd" d="M1107.3 434.432C1110.84 429.897 1113.42 424.74 1115.04 418.963C1109.55 398.711 1103.97 398.711 1098.28 418.963C1095.07 422.242 1092.06 423.101 1089.26 421.541C1093.5 413.461 1098.65 406.157 1104.73 399.626C1102.41 393.974 1099.83 388.39 1096.99 382.867C1098.77 377.855 1100.06 372.699 1100.86 367.398C1101.93 366.22 1103.22 365.359 1104.73 364.82C1112.39 372.312 1114.11 380.908 1109.88 390.602C1114.49 389.867 1118.79 390.726 1122.77 393.18C1119.91 397.599 1121.63 399.319 1127.93 398.337C1131.56 408.343 1133.71 418.656 1134.38 429.276C1128.2 439.001 1122.61 438.139 1117.62 426.697C1115.6 431.307 1112.16 433.885 1107.3 434.432Z" fill="white"/>
<path opacity="0.482" fill-rule="evenodd" clip-rule="evenodd" d="M225.586 372.554C229.543 369.234 233.84 369.234 238.477 372.554C234.178 375.561 229.881 375.561 225.586 372.554Z" fill="white"/>
<path opacity="0.471" fill-rule="evenodd" clip-rule="evenodd" d="M274.57 369.976C280.126 369.646 285.282 370.935 290.039 373.844C287.461 374.274 284.883 374.702 282.305 375.133C278.36 374.772 275.782 373.052 274.57 369.976Z" fill="white"/>
<path opacity="0.026" fill-rule="evenodd" clip-rule="evenodd" d="M292.617 369.976C297.683 371.131 298.542 373.709 295.195 377.711C292.911 375.584 292.053 373.006 292.617 369.976Z" fill="white"/>
<path opacity="0.247" fill-rule="evenodd" clip-rule="evenodd" d="M297.773 382.867C297.928 381.467 298.787 380.609 300.352 380.289C305.26 385.526 305.691 390.682 301.641 395.759C301.13 390.906 299.841 386.611 297.773 382.867Z" fill="white"/>
<path opacity="0.08" fill-rule="evenodd" clip-rule="evenodd" d="M305.508 398.337C306.531 395.694 308.248 395.263 310.664 397.048C309.133 398.244 307.413 398.674 305.508 398.337Z" fill="white"/>
<path opacity="0.453" fill-rule="evenodd" clip-rule="evenodd" d="M980.977 393.18C984.297 397.138 984.297 401.433 980.977 406.071C979.553 402.196 979.553 397.901 980.977 393.18Z" fill="white"/>
<path opacity="0.363" fill-rule="evenodd" clip-rule="evenodd" d="M800.508 403.493C804.104 398.852 808.399 397.991 813.398 400.915C809.415 403.369 805.117 404.228 800.508 403.493Z" fill="white"/>
<path opacity="0.231" fill-rule="evenodd" clip-rule="evenodd" d="M295.195 403.493C296.219 400.851 297.936 400.42 300.352 402.204C298.82 403.4 297.101 403.831 295.195 403.493Z" fill="white"/>
<path opacity="0.155" fill-rule="evenodd" clip-rule="evenodd" d="M978.398 411.228C979.422 408.585 981.139 408.155 983.555 409.939C982.023 411.135 980.304 411.566 978.398 411.228Z" fill="white"/>
<path opacity="0.18" fill-rule="evenodd" clip-rule="evenodd" d="M983.555 424.119C984.578 421.476 986.295 421.046 988.711 422.83C987.18 424.026 985.46 424.457 983.555 424.119Z" fill="white"/>
<path opacity="0.18" fill-rule="evenodd" clip-rule="evenodd" d="M986.133 426.697C989.569 428.417 989.569 428.417 986.133 426.697V426.697Z" fill="white"/>
<path opacity="0.877" fill-rule="evenodd" clip-rule="evenodd" d="M1107.3 434.432C1103.01 437.923 1099.57 442.218 1096.99 447.323C1098.76 451.647 1100.48 455.945 1102.15 460.214C1094.67 465.698 1090.8 473.433 1090.55 483.418C1087.67 483.844 1084.66 484.702 1081.52 485.997C1079.8 484.277 1078.09 482.56 1076.37 480.84C1072.59 483.921 1068.72 483.921 1064.77 480.84C1061.69 476.911 1057.82 473.905 1053.16 471.816C1055.57 465.678 1056.43 459.232 1055.74 452.48C1062.21 451.214 1068.23 448.635 1073.79 444.745C1078.96 438.286 1084.55 432.271 1090.55 426.697C1095.34 431.083 1100.93 433.661 1107.3 434.432Z" fill="white"/>
<path opacity="0.337" fill-rule="evenodd" clip-rule="evenodd" d="M1053.16 447.323C1049.88 445.835 1049.88 444.118 1053.16 442.167C1055.65 443.378 1055.65 445.098 1053.16 447.323Z" fill="white"/>
<path opacity="0.055" fill-rule="evenodd" clip-rule="evenodd" d="M1133.09 444.745C1133.44 440.009 1135.16 439.15 1138.24 442.167C1137.06 444.224 1135.34 445.083 1133.09 444.745Z" fill="white"/>
<path opacity="0.306" fill-rule="evenodd" clip-rule="evenodd" d="M1133.09 444.745C1131.6 448.027 1129.88 448.027 1127.93 444.745C1129.14 442.262 1130.86 442.262 1133.09 444.745Z" fill="white"/>
<path opacity="0.02" fill-rule="evenodd" clip-rule="evenodd" d="M1042.85 444.745C1046.13 446.233 1046.13 447.95 1042.85 449.901C1040.37 448.69 1040.37 446.97 1042.85 444.745Z" fill="white"/>
<path opacity="0.024" fill-rule="evenodd" clip-rule="evenodd" d="M1053.16 447.323C1055.07 446.985 1056.79 447.416 1058.32 448.612C1055.9 450.396 1054.19 449.966 1053.16 447.323Z" fill="white"/>
<path opacity="0.644" fill-rule="evenodd" clip-rule="evenodd" d="M1102.15 460.214C1110.66 457.569 1119.25 454.991 1127.93 452.48C1131.1 455.447 1131.1 458.453 1127.93 461.503C1123.63 462.362 1119.34 463.223 1115.04 464.082C1122.14 469.034 1129.87 470.754 1138.24 469.238C1136.35 463.146 1136.35 456.7 1138.24 449.901C1140.82 449.901 1143.4 449.901 1145.98 449.901C1145.45 457.682 1144.59 465.417 1143.4 473.105C1133.88 475.733 1124.43 476.161 1115.04 474.395C1119.49 480.541 1120.35 486.987 1117.62 493.731C1113.24 491.504 1110.24 488.067 1108.59 483.418C1107.74 487.716 1106.87 492.012 1106.02 496.31C1099.99 494.268 1098.7 490.831 1102.15 485.997C1100.76 482.779 1099.04 479.77 1096.99 476.973C1100.9 472.082 1102.62 466.495 1102.15 460.214ZM1107.3 465.371C1108.79 462.089 1110.51 462.089 1112.46 465.371C1111.25 467.854 1109.53 467.854 1107.3 465.371Z" fill="white"/>
<path opacity="0.776" fill-rule="evenodd" clip-rule="evenodd" d="M1238.79 473.105C1255.27 477.947 1256.99 485.252 1243.95 495.02C1238.94 496.936 1234.22 496.505 1229.77 493.731C1228.05 503.227 1231.92 508.383 1241.37 509.201C1244.79 514.525 1243.07 517.962 1236.21 519.514C1227.13 516.871 1219.82 511.714 1214.3 504.044C1211.3 508.757 1207 511.335 1201.41 511.779C1195.55 508.273 1189.11 506.553 1182.07 506.622C1187.32 495.631 1183.88 489.616 1171.76 488.575C1163.47 486.726 1157.89 481.57 1155 473.105C1152.51 476.143 1151.22 479.579 1151.13 483.418C1144.53 483.55 1137.65 482.689 1130.51 480.84C1142.19 479.652 1149.92 473.637 1153.71 462.793C1159.83 461.859 1165.85 463.579 1171.76 467.949C1191.79 470.236 1210.27 477.971 1227.19 491.153C1234.58 490.032 1241.02 487.025 1246.52 482.129C1243.09 480.41 1239.65 478.692 1236.21 476.973C1237.64 475.985 1238.5 474.696 1238.79 473.105ZM1171.76 470.527C1177.58 472.43 1178.01 475.008 1173.05 478.262C1171.8 475.818 1171.37 473.24 1171.76 470.527Z" fill="white"/>
<path opacity="0.029" fill-rule="evenodd" clip-rule="evenodd" d="M1238.79 473.105C1236.15 472.082 1235.72 470.365 1237.5 467.949C1238.7 469.48 1239.13 471.2 1238.79 473.105Z" fill="white"/>
<path opacity="0.322" fill-rule="evenodd" clip-rule="evenodd" d="M1223.32 470.527C1225.35 471.257 1227.07 472.546 1228.48 474.395C1225.08 475.756 1223.36 474.467 1223.32 470.527Z" fill="white"/>
<path opacity="0.09" fill-rule="evenodd" clip-rule="evenodd" d="M1027.38 488.575C1025.66 490.295 1025.66 490.295 1027.38 488.575V488.575Z" fill="white"/>
<path opacity="0.322" fill-rule="evenodd" clip-rule="evenodd" d="M1161.45 488.575C1164.73 490.062 1164.73 491.78 1161.45 493.731C1158.96 492.52 1158.96 490.8 1161.45 488.575Z" fill="white"/>
<path opacity="0.394" fill-rule="evenodd" clip-rule="evenodd" d="M1256.84 488.575C1265.77 496.157 1276.08 501.314 1287.77 504.044C1286.94 509.773 1288.66 514.502 1292.93 518.224C1287.18 518.33 1282.03 516.183 1277.46 511.779C1278 510.268 1278.86 508.979 1280.04 507.912C1275.85 508.414 1271.55 508.414 1267.15 507.912C1261.89 502.278 1258.45 495.833 1256.84 488.575Z" fill="white"/>
<path opacity="0.453" fill-rule="evenodd" clip-rule="evenodd" d="M1171.76 488.575C1172.88 495.448 1170.3 498.457 1164.02 497.599C1165.73 493.685 1168.31 490.676 1171.76 488.575Z" fill="white"/>
<path opacity="0.01" fill-rule="evenodd" clip-rule="evenodd" d="M1081.52 498.888C1082.55 496.245 1084.26 495.814 1086.68 497.599C1085.15 498.795 1083.43 499.225 1081.52 498.888Z" fill="white"/>
<path opacity="0.11" fill-rule="evenodd" clip-rule="evenodd" d="M1140.82 496.31C1143.46 497.333 1143.89 499.05 1142.11 501.466C1140.91 499.935 1140.48 498.215 1140.82 496.31Z" fill="white"/>
<path opacity="0.462" fill-rule="evenodd" clip-rule="evenodd" d="M1153.71 498.888C1159.27 499.847 1159.27 502.425 1153.71 506.622C1150.97 504.238 1150.97 501.659 1153.71 498.888Z" fill="white"/>
<path opacity="0.01" fill-rule="evenodd" clip-rule="evenodd" d="M1145.98 501.466C1148.62 502.49 1149.05 504.207 1147.27 506.622C1146.07 505.091 1145.64 503.371 1145.98 501.466Z" fill="white"/>
<path opacity="0.141" fill-rule="evenodd" clip-rule="evenodd" d="M1241.37 509.201C1241.03 507.295 1241.46 505.576 1242.66 504.044C1244.44 506.46 1244.01 508.177 1241.37 509.201Z" fill="white"/>
<path opacity="0.092" fill-rule="evenodd" clip-rule="evenodd" d="M1246.52 506.622C1251.26 506.981 1252.12 508.7 1249.1 511.779C1247.04 510.601 1246.19 508.881 1246.52 506.622Z" fill="white"/>
<path opacity="0.114" fill-rule="evenodd" clip-rule="evenodd" d="M1109.88 514.357C1113.32 516.077 1113.32 516.077 1109.88 514.357V514.357Z" fill="white"/>
<path opacity="0.954" fill-rule="evenodd" clip-rule="evenodd" d="M1189.8 674.207C1189.8 671.629 1189.8 669.051 1189.8 666.473C1180.48 667.156 1171.02 665.867 1161.45 662.605C1159.51 658.135 1158.23 653.409 1157.58 648.425C1153.73 651.64 1149.86 651.64 1145.98 648.425C1146.52 646.914 1147.38 645.625 1148.55 644.558C1142.4 643.826 1140.69 641.247 1143.4 636.823C1141.68 631.667 1138.24 628.23 1133.09 626.51C1120.41 624.306 1109.24 627.315 1099.57 635.534C1088.95 637.212 1079.06 640.649 1069.92 645.847C1064.84 646.412 1061.83 644.261 1060.9 639.401C1065.95 624.285 1065.1 609.246 1058.32 594.282C1062.87 588.159 1065.88 581.283 1067.34 573.656C1078.31 567.422 1089.91 562.694 1102.15 559.476C1107.89 549.251 1115.62 540.658 1125.35 533.694C1131.03 531.567 1135.75 532.856 1139.53 537.561C1143.17 532.018 1145.32 526 1145.98 519.514C1150.21 520.065 1154.08 519.204 1157.58 516.935C1163.16 521.115 1169.61 523.265 1176.91 523.381C1177.77 524.239 1178.63 525.101 1179.49 525.959C1178.21 531.105 1175.64 535.403 1171.76 538.85C1176.19 542.787 1181.35 545.366 1187.23 546.585C1184.14 548.271 1184.14 549.56 1187.23 550.452C1192.38 539.077 1197.54 527.906 1202.7 516.935C1209.37 529.973 1214.1 543.723 1216.88 558.187C1223.67 568.848 1230.97 579.161 1238.79 589.126C1236.04 602.52 1231.75 615.411 1225.9 627.799C1218.87 636.563 1212.85 646.017 1207.85 656.16C1202.99 658.496 1198.26 661.074 1193.67 663.895C1192.4 666.599 1192.83 669.177 1194.96 671.629C1193.78 673.687 1192.06 674.545 1189.8 674.207Z" fill="white"/>
<path opacity="0.075" fill-rule="evenodd" clip-rule="evenodd" d="M1249.1 519.514C1246.46 518.49 1246.03 516.773 1247.81 514.357C1249.01 515.889 1249.44 517.608 1249.1 519.514Z" fill="white"/>
<path opacity="0.243" fill-rule="evenodd" clip-rule="evenodd" d="M1308.4 519.514C1306.49 519.851 1304.77 519.421 1303.24 518.224C1305.66 516.44 1307.37 516.871 1308.4 519.514Z" fill="white"/>
<path opacity="0.343" fill-rule="evenodd" clip-rule="evenodd" d="M1249.1 519.514C1257.6 519.073 1258.46 520.79 1251.68 524.67C1249.62 523.492 1248.76 521.772 1249.1 519.514Z" fill="white"/>
<path opacity="0.02" fill-rule="evenodd" clip-rule="evenodd" d="M1308.4 519.514C1311.04 520.537 1311.47 522.254 1309.69 524.67C1308.49 523.139 1308.06 521.419 1308.4 519.514Z" fill="white"/>
<path opacity="0.863" fill-rule="evenodd" clip-rule="evenodd" d="M787.617 522.092C794.13 528.354 796.277 536.089 794.062 545.296C788.398 559.711 783.242 574.322 778.594 589.126C766.196 597.717 759.75 594.277 759.258 578.813C762.872 567.987 765.02 556.813 765.703 545.296C777.021 541.284 784.327 533.55 787.617 522.092Z" fill="white"/>
<path opacity="0.306" fill-rule="evenodd" clip-rule="evenodd" d="M1277.46 519.514C1282.2 519.872 1283.06 521.592 1280.04 524.67C1277.98 523.492 1277.12 521.772 1277.46 519.514Z" fill="white"/>
<path opacity="0.326" fill-rule="evenodd" clip-rule="evenodd" d="M1308.4 534.983C1309.99 535.269 1311.28 536.128 1312.27 537.561C1314.12 547.041 1314.98 556.493 1314.84 565.922C1310.21 560.729 1308.92 555.142 1310.98 549.163C1302.91 544.909 1302.06 540.183 1308.4 534.983Z" fill="white"/>
<path opacity="0.02" fill-rule="evenodd" clip-rule="evenodd" d="M1269.73 560.765C1270.75 558.123 1272.47 557.692 1274.88 559.476C1273.35 560.672 1271.63 561.103 1269.73 560.765Z" fill="white"/>
<path opacity="0.588" fill-rule="evenodd" clip-rule="evenodd" d="M1298.09 568.5C1298.09 570.22 1298.94 571.078 1300.66 571.078C1303.9 579.8 1301.32 581.089 1292.93 574.946C1287.98 571.746 1287.12 567.879 1290.35 563.344C1292.98 565.13 1295.55 566.847 1298.09 568.5Z" fill="white"/>
<path opacity="0.027" fill-rule="evenodd" clip-rule="evenodd" d="M1298.09 568.5C1303.23 565.437 1305.38 567.157 1304.53 573.656C1303.54 572.223 1302.25 571.364 1300.66 571.078C1298.94 571.078 1298.09 570.22 1298.09 568.5Z" fill="white"/>
<path opacity="0.757" fill-rule="evenodd" clip-rule="evenodd" d="M1318.71 656.16C1318.71 659.597 1318.71 663.036 1318.71 666.473C1300.68 677.108 1283.5 689.571 1267.15 703.857C1263.3 707.384 1259.43 707.815 1255.55 705.146C1253.46 708.91 1251.31 709.769 1249.1 707.724C1252.54 705.146 1252.54 702.568 1249.1 699.99C1263.37 692.425 1276.26 682.973 1287.77 671.629C1295.33 675.955 1297.91 674.666 1295.51 667.762C1303.85 659.272 1304.71 649.817 1298.09 639.401C1301.01 637.47 1303.59 637.898 1305.82 640.69C1308.22 646.607 1310.37 652.625 1312.27 658.738C1314 656.799 1316.14 655.938 1318.71 656.16Z" fill="white"/>
<path opacity="0.722" fill-rule="evenodd" clip-rule="evenodd" d="M1189.8 674.207C1187.9 686.07 1181.45 691.226 1170.47 689.677C1170.28 682.824 1171.14 675.95 1173.05 669.051C1177.57 673.563 1183.16 675.283 1189.8 674.207Z" fill="white"/>
<g clip-path="url(#clip1_30_721)">
<path opacity="0.986" fill-rule="evenodd" clip-rule="evenodd" d="M1053.12 161.93C1054.05 161.93 1054.99 161.93 1055.93 161.93C1055.93 162.961 1055.93 163.992 1055.93 165.023C1046.52 165.354 1039.33 169.479 1034.34 177.398C1030.51 184.369 1030 191.588 1032.8 199.055C1036.15 206.957 1041.99 211.996 1050.3 214.172C1052.17 214.522 1054.04 214.733 1055.93 214.805C1055.93 221.18 1055.93 227.555 1055.93 233.93C1055.88 233.93 1055.84 233.93 1055.79 233.93C1051.19 229.21 1046.71 224.382 1042.36 219.445C1038.55 215.008 1035.22 210.227 1032.37 205.102C1030.08 201.02 1028.62 196.661 1028.02 192.023C1027.55 180.171 1032.41 171.242 1042.57 165.234C1045.9 163.49 1049.42 162.389 1053.12 161.93Z" fill="#FFCC00"/>
<path opacity="0.986" fill-rule="evenodd" clip-rule="evenodd" d="M1055.93 161.93C1056.87 161.93 1057.8 161.93 1058.74 161.93C1070.33 163.68 1078.27 170.008 1082.58 180.914C1084.52 187.215 1084.33 193.449 1082.02 199.617C1079.57 205.476 1076.38 210.866 1072.45 215.789C1067.28 222.07 1061.81 228.117 1056.07 233.93C1056.02 233.93 1055.98 233.93 1055.93 233.93C1055.93 227.555 1055.93 221.18 1055.93 214.805C1065.06 214.497 1072.11 210.559 1077.09 202.992C1081.47 195.463 1081.99 187.681 1078.64 179.648C1074.89 171.96 1068.82 167.202 1060.43 165.375C1058.94 165.16 1057.44 165.042 1055.93 165.023C1055.93 163.992 1055.93 162.961 1055.93 161.93Z" fill="#FFA800"/>
<path fill-rule="evenodd" clip-rule="evenodd" d="M1055.93 165.023C1057.44 165.042 1058.94 165.16 1060.43 165.375C1068.82 167.202 1074.89 171.96 1078.64 179.648C1081.99 187.681 1081.47 195.463 1077.09 202.992C1072.11 210.559 1065.06 214.497 1055.93 214.805C1054.04 214.733 1052.17 214.522 1050.3 214.172C1041.99 211.996 1036.15 206.957 1032.8 199.055C1030 191.588 1030.51 184.369 1034.34 177.398C1039.33 169.479 1046.52 165.354 1055.93 165.023Z" fill="#FFFCF0"/>
<path fill-rule="evenodd" clip-rule="evenodd" d="M1053.4 167.977C1064.25 167.433 1071.91 172.073 1076.39 181.898C1079.18 189.638 1078.14 196.809 1073.3 203.414C1068.07 209.623 1061.39 212.412 1053.26 211.781C1044.86 210.407 1038.93 205.837 1035.47 198.07C1032.25 188.678 1034.15 180.498 1041.16 173.531C1044.69 170.472 1048.77 168.62 1053.4 167.977Z" fill="#D80227"/>
<path fill-rule="evenodd" clip-rule="evenodd" d="M1055.37 182.461C1054.71 182.367 1054.05 182.273 1053.4 182.18C1053.93 181.816 1054.44 181.418 1054.95 180.984C1054.63 180.307 1054.44 179.627 1054.38 178.945C1054.95 179.367 1055.51 179.789 1056.07 180.211C1056.64 179.772 1057.23 179.35 1057.83 178.945C1057.7 179.573 1057.53 180.205 1057.34 180.844C1057.38 180.961 1057.43 181.078 1057.48 181.195C1058.01 181.567 1058.53 181.965 1059.02 182.391C1058.27 182.437 1057.52 182.484 1056.77 182.531C1056.58 183.178 1056.35 183.811 1056.07 184.43C1055.83 183.77 1055.6 183.114 1055.37 182.461Z" fill="#FED543"/>
<path fill-rule="evenodd" clip-rule="evenodd" d="M1045.66 181.195C1046.4 183.123 1047.06 185.091 1047.63 187.102C1049.7 187.078 1051.76 187.102 1053.82 187.172C1052.14 188.34 1050.5 189.559 1048.9 190.828C1049.6 192.722 1050.16 194.62 1050.59 196.523C1048.98 195.334 1047.36 194.162 1045.73 193.008C1044.09 194.227 1042.45 195.445 1040.81 196.664C1041.34 194.714 1041.92 192.769 1042.57 190.828C1040.97 189.559 1039.33 188.34 1037.65 187.172C1039.71 187.148 1041.78 187.078 1043.84 186.961C1044.47 185.046 1045.08 183.124 1045.66 181.195Z" fill="#FED843"/>
<path fill-rule="evenodd" clip-rule="evenodd" d="M1053.4 182.18C1054.05 182.273 1054.71 182.367 1055.37 182.461C1054.62 182.484 1053.87 182.461 1053.12 182.391C1053.19 182.29 1053.29 182.219 1053.4 182.18Z" fill="#F7AE3E"/>
<path fill-rule="evenodd" clip-rule="evenodd" d="M1059.73 183.586C1059.87 183.582 1059.96 183.652 1060.01 183.797C1060.21 184.379 1060.4 184.965 1060.57 185.555C1061.32 185.671 1062.07 185.742 1062.82 185.766C1062.24 186.113 1061.7 186.511 1061.2 186.961C1061.32 187.718 1061.46 188.468 1061.62 189.211C1061.1 188.707 1060.51 188.285 1059.87 187.945C1059.24 188.315 1058.66 188.737 1058.11 189.211C1058.19 188.482 1058.4 187.779 1058.74 187.102C1058.16 186.683 1057.6 186.238 1057.05 185.766C1057.76 185.742 1058.47 185.671 1059.16 185.555C1059.44 184.92 1059.63 184.264 1059.73 183.586Z" fill="#FED543"/>
<path fill-rule="evenodd" clip-rule="evenodd" d="M1058.04 190.617C1058.68 190.981 1059.29 191.403 1059.87 191.883C1060.44 191.444 1061.03 191.022 1061.62 190.617C1061.4 191.346 1061.26 192.096 1061.2 192.867C1061.78 193.211 1062.32 193.61 1062.82 194.062C1062.07 194.087 1061.32 194.157 1060.57 194.273C1060.36 194.895 1060.13 195.505 1059.87 196.102C1059.65 195.462 1059.41 194.829 1059.16 194.203C1058.41 194.156 1057.66 194.109 1056.91 194.062C1057.55 193.628 1058.16 193.159 1058.74 192.656C1058.47 191.991 1058.23 191.312 1058.04 190.617Z" fill="#FED543"/>
<path fill-rule="evenodd" clip-rule="evenodd" d="M1055.93 195.258C1056.07 195.254 1056.16 195.324 1056.21 195.469C1056.39 196.059 1056.58 196.645 1056.77 197.227C1057.52 197.343 1058.27 197.413 1059.02 197.437C1058.45 197.784 1057.91 198.183 1057.41 198.633C1057.52 199.39 1057.66 200.14 1057.83 200.883C1057.28 200.409 1056.69 199.987 1056.07 199.617C1055.45 199.987 1054.86 200.409 1054.31 200.883C1054.45 200.17 1054.66 199.467 1054.95 198.773C1054.36 198.301 1053.75 197.856 1053.12 197.437C1053.87 197.413 1054.62 197.343 1055.37 197.227C1055.64 196.592 1055.83 195.936 1055.93 195.258Z" fill="#FED543"/>
</g>
<g clip-path="url(#clip2_30_721)">
<path opacity="0.986" fill-rule="evenodd" clip-rule="evenodd" d="M166.817 214.935C167.69 214.935 168.562 214.935 169.435 214.935C169.435 215.894 169.435 216.854 169.435 217.813C161.359 218.023 154.968 221.382 150.264 227.89C145.833 234.676 145.048 241.873 147.908 249.481C151.031 256.835 156.462 261.524 164.2 263.549C165.932 263.875 167.677 264.071 169.435 264.138C169.435 270.07 169.435 276.002 169.435 281.935C169.391 281.935 169.347 281.935 169.304 281.935C165.021 277.543 160.855 273.05 156.807 268.456C153.258 264.327 150.161 259.877 147.516 255.108C145.377 251.31 144.025 247.254 143.459 242.938C143.029 231.91 147.544 223.6 157.003 218.01C160.105 216.387 163.376 215.362 166.817 214.935Z" fill="#FFCC00"/>
<path opacity="0.986" fill-rule="evenodd" clip-rule="evenodd" d="M169.435 214.935C170.307 214.935 171.179 214.935 172.052 214.935C182.831 216.563 190.224 222.452 194.232 232.601C196.038 238.464 195.863 244.265 193.709 250.005C191.433 255.457 188.467 260.473 184.811 265.054C179.992 270.898 174.91 276.525 169.565 281.935C169.522 281.935 169.478 281.935 169.435 281.935C169.435 276.002 169.435 270.07 169.435 264.138C177.928 263.851 184.493 260.187 189.129 253.146C193.151 246.244 193.674 239.09 190.699 231.685C186.371 222.877 179.283 218.253 169.435 217.813C169.435 216.854 169.435 215.894 169.435 214.935Z" fill="#FFA800"/>
<path fill-rule="evenodd" clip-rule="evenodd" d="M169.435 217.813C179.283 218.253 186.371 222.877 190.699 231.685C193.674 239.09 193.151 246.244 189.129 253.146C184.493 260.187 177.928 263.851 169.435 264.138C167.677 264.071 165.932 263.875 164.2 263.549C156.462 261.524 151.031 256.835 147.908 249.481C145.048 241.873 145.833 234.676 150.264 227.89C154.968 221.382 161.359 218.023 169.435 217.813Z" fill="#FFFCF0"/>
<path fill-rule="evenodd" clip-rule="evenodd" d="M169.435 220.562C169.435 221.87 169.435 223.179 169.435 224.487C169.435 224.531 169.435 224.575 169.435 224.618C169.435 226.407 169.435 228.195 169.435 229.983C169.435 230.027 169.435 230.071 169.435 230.114C169.435 231.903 169.435 233.691 169.435 235.48C169.435 237.312 169.435 239.144 169.435 240.976C162.63 240.976 155.825 240.976 149.021 240.976C148.963 239.909 149.05 238.862 149.282 237.835C149.442 237.766 149.595 237.679 149.74 237.573C150.345 237.959 150.912 238.396 151.441 238.882C151.303 238.203 151.107 237.527 150.853 236.854C151.38 236.371 151.947 235.934 152.554 235.545C151.813 235.48 151.072 235.458 150.329 235.48C150.343 235.142 150.256 234.837 150.067 234.564C150.209 233.766 150.493 233.024 150.918 232.339C151.116 232.438 151.29 232.569 151.441 232.731C151.409 232.41 151.343 232.083 151.245 231.75C152.304 229.483 153.766 227.498 155.629 225.796C155.681 225.826 155.703 225.869 155.694 225.927C155.661 226.145 155.574 226.342 155.433 226.516C155.476 226.537 155.52 226.559 155.563 226.581C156.108 226.156 156.675 225.764 157.265 225.403C157.798 225.812 158.344 226.205 158.9 226.581C158.827 225.901 158.63 225.247 158.312 224.618C158.854 224.229 159.377 223.814 159.882 223.375C159.668 223.31 159.45 223.289 159.228 223.31C162.351 221.416 165.753 220.5 169.435 220.562Z" fill="#0453B4"/>
<path fill-rule="evenodd" clip-rule="evenodd" d="M169.435 220.562C173.871 220.55 177.884 221.837 181.474 224.422C177.461 224.487 173.448 224.509 169.435 224.487C169.435 223.179 169.435 221.87 169.435 220.562Z" fill="#EFEFEF"/>
<path fill-rule="evenodd" clip-rule="evenodd" d="M164.724 221.216C165.02 221.876 165.238 222.574 165.378 223.31C166.077 223.288 166.775 223.31 167.472 223.375C166.982 223.762 166.48 224.132 165.967 224.487C166.124 225.179 166.255 225.877 166.359 226.581C165.849 226.14 165.303 225.748 164.724 225.403C164.19 225.812 163.645 226.205 163.088 226.581C163.245 225.89 163.376 225.192 163.48 224.487C163.014 224.069 162.512 223.698 161.976 223.375C162.672 223.31 163.37 223.288 164.069 223.31C164.235 222.594 164.453 221.896 164.724 221.216Z" fill="#E7E9ED"/>
<path fill-rule="evenodd" clip-rule="evenodd" d="M159.228 223.31C159.45 223.289 159.668 223.31 159.882 223.375C159.377 223.814 158.854 224.229 158.312 224.618C158.63 225.247 158.827 225.901 158.9 226.581C158.344 226.205 157.798 225.812 157.265 225.403C156.675 225.764 156.108 226.156 155.563 226.581C155.52 226.559 155.476 226.537 155.433 226.516C155.574 226.342 155.661 226.145 155.694 225.927C156.703 224.833 157.88 223.961 159.228 223.31Z" fill="#E6E8ED"/>
<path fill-rule="evenodd" clip-rule="evenodd" d="M169.435 224.618C173.579 224.596 177.723 224.618 181.866 224.684C183.698 226.187 185.268 227.91 186.577 229.853C180.885 229.983 175.171 230.027 169.435 229.983C169.435 228.195 169.435 226.407 169.435 224.618Z" fill="#D70027"/>
<path fill-rule="evenodd" clip-rule="evenodd" d="M154.647 229.591C155.302 229.504 155.956 229.416 156.61 229.329C156.766 228.666 156.962 228.011 157.199 227.366C157.476 227.957 157.716 228.568 157.919 229.198C158.613 229.307 159.311 229.372 160.013 229.395C159.44 229.854 158.873 230.312 158.312 230.769C158.63 231.397 158.827 232.051 158.9 232.731C158.377 232.274 157.81 231.881 157.199 231.554C156.637 231.919 156.092 232.312 155.563 232.731C155.619 232.078 155.794 231.423 156.087 230.769C155.646 230.327 155.166 229.935 154.647 229.591Z" fill="#E5E8ED"/>
<path fill-rule="evenodd" clip-rule="evenodd" d="M165.378 229.329C166.032 229.416 166.687 229.504 167.341 229.591C166.867 229.912 166.409 230.26 165.967 230.638C166.035 231.237 166.188 231.826 166.425 232.404C166.381 232.47 166.338 232.535 166.294 232.601C165.809 232.224 165.307 231.875 164.789 231.554C164.151 231.842 163.584 232.235 163.088 232.731C163.183 232.096 163.335 231.463 163.546 230.834C163.178 230.299 162.698 229.885 162.106 229.591C162.761 229.504 163.415 229.416 164.069 229.329C164.245 228.648 164.485 227.994 164.789 227.366C165.026 228.011 165.222 228.666 165.378 229.329Z" fill="#E8EAEE"/>
<path fill-rule="evenodd" clip-rule="evenodd" d="M156.61 229.329C155.956 229.416 155.302 229.504 154.647 229.591C154.544 229.554 154.457 229.488 154.386 229.395C155.126 229.329 155.868 229.307 156.61 229.329Z" fill="#8FB0D7"/>
<path fill-rule="evenodd" clip-rule="evenodd" d="M164.069 229.329C163.415 229.416 162.761 229.504 162.106 229.591C162.035 229.583 161.992 229.539 161.976 229.46C162.668 229.33 163.366 229.286 164.069 229.329Z" fill="#8CAED7"/>
<path fill-rule="evenodd" clip-rule="evenodd" d="M165.378 229.329C166.121 229.307 166.862 229.329 167.603 229.395C167.531 229.488 167.444 229.554 167.341 229.591C166.687 229.504 166.032 229.416 165.378 229.329Z" fill="#8EAFD7"/>
<path fill-rule="evenodd" clip-rule="evenodd" d="M186.577 229.853C186.687 229.897 186.731 229.984 186.708 230.114C180.95 230.114 175.192 230.114 169.435 230.114C169.435 230.071 169.435 230.027 169.435 229.983C175.171 230.027 180.885 229.983 186.577 229.853Z" fill="#E9AFB9"/>
<path fill-rule="evenodd" clip-rule="evenodd" d="M169.435 230.114C175.192 230.114 180.95 230.114 186.708 230.114C187.796 231.764 188.582 233.553 189.063 235.479C182.521 235.479 175.978 235.479 169.435 235.479C169.435 233.691 169.435 231.903 169.435 230.114Z" fill="#EFEFEF"/>
<path fill-rule="evenodd" clip-rule="evenodd" d="M157.134 233.517C157.468 234.077 157.729 234.688 157.919 235.349C158.613 235.457 159.311 235.523 160.013 235.545C159.523 235.932 159.021 236.302 158.508 236.657C158.555 237.327 158.708 237.982 158.966 238.62C158.922 238.664 158.879 238.707 158.835 238.751C158.312 238.358 157.788 237.966 157.265 237.573C156.731 237.982 156.186 238.374 155.629 238.751C155.733 238.047 155.864 237.349 156.021 236.657C155.483 236.337 154.981 235.966 154.517 235.545C155.213 235.48 155.911 235.458 156.61 235.479C156.732 234.81 156.906 234.156 157.134 233.517Z" fill="#E7EAED"/>
<path fill-rule="evenodd" clip-rule="evenodd" d="M164.593 233.517C165.002 234.085 165.264 234.74 165.378 235.479C166.077 235.458 166.775 235.48 167.472 235.545C167.007 235.966 166.505 236.337 165.967 236.657C166.124 237.349 166.255 238.047 166.359 238.751C165.803 238.374 165.257 237.982 164.724 237.573C164.225 237.919 163.745 238.29 163.284 238.686C163.156 238.763 163.068 238.719 163.022 238.555C163.287 237.939 163.439 237.307 163.48 236.657C162.967 236.302 162.466 235.932 161.976 235.545C162.678 235.523 163.376 235.457 164.069 235.349C164.285 234.748 164.459 234.137 164.593 233.517Z" fill="#E7EAED"/>
<path fill-rule="evenodd" clip-rule="evenodd" d="M150.067 234.563C150.256 234.837 150.343 235.142 150.329 235.479C151.072 235.458 151.813 235.48 152.554 235.545C151.947 235.934 151.38 236.371 150.853 236.854C151.107 237.527 151.303 238.203 151.441 238.882C150.912 238.396 150.345 237.959 149.74 237.573C149.595 237.679 149.442 237.766 149.282 237.835C149.359 236.685 149.621 235.595 150.067 234.563Z" fill="#E9EAED"/>
<path fill-rule="evenodd" clip-rule="evenodd" d="M169.435 235.479C175.978 235.479 182.521 235.479 189.063 235.479C189.677 237.244 189.939 239.076 189.849 240.976C183.044 240.976 176.239 240.976 169.435 240.976C169.435 239.144 169.435 237.312 169.435 235.479Z" fill="#D80228"/>
<path fill-rule="evenodd" clip-rule="evenodd" d="M149.021 240.976C155.825 240.976 162.63 240.976 169.435 240.976C176.239 240.976 183.044 240.976 189.849 240.976C189.852 242.792 189.634 244.58 189.194 246.341C176.021 246.341 162.848 246.341 149.675 246.341C149.232 244.585 149.014 242.796 149.021 240.976Z" fill="#EFEFEF"/>
<path fill-rule="evenodd" clip-rule="evenodd" d="M149.675 246.341C162.848 246.341 176.021 246.341 189.194 246.341C189.217 246.471 189.173 246.558 189.063 246.603C182.542 246.515 176 246.472 169.435 246.472C162.847 246.472 156.304 246.559 149.806 246.733C149.687 246.641 149.644 246.51 149.675 246.341Z" fill="#E47F91"/>
<path fill-rule="evenodd" clip-rule="evenodd" d="M189.063 246.603C188.572 248.415 187.83 250.116 186.839 251.706C175.236 251.88 163.633 251.88 152.03 251.706C151.076 250.146 150.335 248.489 149.806 246.733C156.304 246.559 162.847 246.472 169.435 246.472C176 246.472 182.542 246.515 189.063 246.603Z" fill="#D70027"/>
<path fill-rule="evenodd" clip-rule="evenodd" d="M181.604 257.333C173.491 257.333 165.378 257.333 157.265 257.333C155.294 255.885 153.636 254.141 152.292 252.099C163.72 251.924 175.149 251.924 186.577 252.099C185.233 254.141 183.576 255.885 181.604 257.333Z" fill="#EFEFEF"/>
<path fill-rule="evenodd" clip-rule="evenodd" d="M157.265 257.333C165.378 257.333 173.491 257.333 181.604 257.333C176.913 260.72 171.679 262.006 165.901 261.193C162.7 260.573 159.821 259.286 157.265 257.333Z" fill="#D70328"/>
</g>
<g clip-path="url(#clip3_30_721)">
<path opacity="0.992" fill-rule="evenodd" clip-rule="evenodd" d="M1133.36 225.936C1134.09 225.936 1134.82 225.936 1135.55 225.936C1135.55 227.826 1135.55 229.717 1135.55 231.607C1129.04 231.912 1124.04 234.791 1120.53 240.244C1117.63 245.476 1117.25 250.89 1119.37 256.486C1122.06 262.308 1126.55 265.896 1132.84 267.25C1133.74 267.409 1134.64 267.473 1135.55 267.443C1135.55 275.607 1135.55 283.772 1135.55 291.936C1135.51 291.936 1135.46 291.936 1135.42 291.936C1127.98 283.588 1121.81 274.35 1116.92 264.221C1115.29 260.746 1114.04 257.136 1113.18 253.393C1112.17 247.204 1113.24 241.403 1116.41 235.99C1120.53 230.111 1126.19 226.76 1133.36 225.936Z" fill="#FFCC00"/>
<path fill-rule="evenodd" clip-rule="evenodd" d="M1135.55 225.936C1136.54 225.936 1137.53 225.936 1138.51 225.936C1146 226.785 1151.77 230.352 1155.85 236.635C1159.55 243.644 1160.03 250.863 1157.27 258.291C1155.12 263.705 1152.5 268.861 1149.41 273.76C1145.33 280.192 1140.75 286.251 1135.68 291.936C1135.63 291.936 1135.59 291.936 1135.55 291.936C1135.55 283.772 1135.55 275.607 1135.55 267.443C1141.73 267.414 1146.69 264.965 1150.44 260.096C1154.25 254.412 1154.85 248.396 1152.24 242.049C1148.76 235.286 1143.2 231.805 1135.55 231.607C1135.55 229.717 1135.55 227.826 1135.55 225.936Z" fill="#FFA800"/>
<path fill-rule="evenodd" clip-rule="evenodd" d="M1135.55 231.607C1143.2 231.805 1148.76 235.286 1152.24 242.049C1154.85 248.396 1154.25 254.412 1150.44 260.096C1146.69 264.965 1141.73 267.414 1135.55 267.443C1134.64 267.473 1133.74 267.409 1132.84 267.25C1126.55 265.896 1122.06 262.308 1119.37 256.486C1117.25 250.89 1117.63 245.476 1120.53 240.244C1124.04 234.791 1129.04 231.912 1135.55 231.607Z" fill="#FFFCF0"/>
<path fill-rule="evenodd" clip-rule="evenodd" d="M1133.87 233.154C1142 232.716 1147.78 236.154 1151.21 243.467C1153.48 250.189 1152.21 256.14 1147.41 261.32C1142.62 265.567 1137.12 266.856 1130.91 265.188C1124.34 262.735 1120.58 258.03 1119.63 251.072C1119.21 244.407 1121.77 239.23 1127.3 235.539C1129.36 234.344 1131.55 233.549 1133.87 233.154Z" fill="#F4F4F4"/>
<path fill-rule="evenodd" clip-rule="evenodd" d="M1134.78 241.662C1139.56 241.508 1142.55 243.742 1143.73 248.365C1144.03 251.656 1142.85 254.256 1140.19 256.164C1136.18 258.302 1132.67 257.679 1129.68 254.295C1127.55 251.111 1127.55 247.931 1129.68 244.756C1131.02 243.113 1132.71 242.081 1134.78 241.662Z" fill="#FF4B55"/>
</g>
<g clip-path="url(#clip4_30_721)">
<path opacity="0.986" fill-rule="evenodd" clip-rule="evenodd" d="M560.298 217.946C561.014 217.946 561.73 217.946 562.446 217.946C562.446 218.734 562.446 219.522 562.446 220.31C555.817 220.482 550.571 223.239 546.709 228.581C543.072 234.151 542.428 240.059 544.775 246.306C547.339 252.342 551.797 256.191 558.149 257.854C559.571 258.121 561.003 258.282 562.446 258.337C562.446 263.207 562.446 268.077 562.446 272.946C562.41 272.946 562.375 272.946 562.339 272.946C558.823 269.341 555.403 265.653 552.08 261.882C549.167 258.492 546.625 254.84 544.453 250.925C542.698 247.807 541.588 244.477 541.123 240.935C540.77 231.881 544.476 225.06 552.241 220.471C554.787 219.138 557.473 218.297 560.298 217.946Z" fill="#FFCC00"/>
<path opacity="0.986" fill-rule="evenodd" clip-rule="evenodd" d="M562.446 217.946C563.162 217.946 563.879 217.946 564.595 217.946C573.443 219.283 579.512 224.117 582.803 232.448C584.285 237.261 584.142 242.024 582.373 246.735C580.505 251.211 578.07 255.329 575.068 259.089C571.113 263.887 566.941 268.506 562.554 272.946C562.518 272.946 562.482 272.946 562.446 272.946C562.446 268.077 562.446 263.207 562.446 258.337C569.419 258.102 574.808 255.094 578.613 249.313C581.915 243.649 582.345 237.776 579.902 231.696C576.349 224.466 570.53 220.67 562.446 220.31C562.446 219.522 562.446 218.734 562.446 217.946Z" fill="#FFA800"/>
<path fill-rule="evenodd" clip-rule="evenodd" d="M562.446 220.31C570.53 220.67 576.349 224.466 579.902 231.696C582.345 237.776 581.915 243.649 578.613 249.313C574.808 255.094 569.419 258.102 562.446 258.337C561.003 258.282 559.571 258.121 558.149 257.854C551.797 256.191 547.339 252.342 544.775 246.306C542.428 240.059 543.072 234.151 546.709 228.581C550.571 223.239 555.817 220.482 562.446 220.31Z" fill="#FFFCF0"/>
<path fill-rule="evenodd" clip-rule="evenodd" d="M578.022 233.308C567.603 233.308 557.183 233.308 546.763 233.308C549.162 227.49 553.459 223.963 559.653 222.727C567.29 221.846 573.109 224.657 577.109 231.159C577.505 231.842 577.809 232.558 578.022 233.308Z" fill="#D70127"/>
<path fill-rule="evenodd" clip-rule="evenodd" d="M546.763 233.308C557.183 233.308 567.603 233.308 578.022 233.308C578.882 235.207 579.276 237.212 579.204 239.323C579.25 241.378 578.892 243.348 578.13 245.231C567.674 245.231 557.218 245.231 546.763 245.231C545.691 242.432 545.387 239.532 545.85 236.53C546.035 235.419 546.34 234.345 546.763 233.308Z" fill="#FED944"/>
<path fill-rule="evenodd" clip-rule="evenodd" d="M546.763 245.231C557.218 245.231 567.674 245.231 578.13 245.231C576.199 250.045 572.797 253.357 567.925 255.168C560.463 257.381 554.214 255.537 549.18 249.636C548.15 248.292 547.344 246.824 546.763 245.231Z" fill="#D80427"/>
</g>
<g clip-path="url(#clip5_30_721)">
<path opacity="0.986" fill-rule="evenodd" clip-rule="evenodd" d="M637.598 211.941C638.379 211.941 639.16 211.941 639.941 211.941C639.941 212.801 639.941 213.66 639.941 214.52C632.103 214.795 626.107 218.232 621.953 224.832C618.15 232.097 618.306 239.285 622.422 246.395C626.596 252.57 632.436 255.773 639.941 256.004C639.941 261.316 639.941 266.629 639.941 271.941C639.902 271.941 639.863 271.941 639.824 271.941C635.989 268.008 632.258 263.985 628.633 259.871C625.455 256.173 622.682 252.189 620.312 247.918C618.397 244.517 617.187 240.884 616.68 237.02C616.295 227.143 620.338 219.701 628.809 214.695C631.586 213.242 634.516 212.324 637.598 211.941Z" fill="#FFCC00"/>
<path opacity="0.986" fill-rule="evenodd" clip-rule="evenodd" d="M639.941 211.941C640.723 211.941 641.504 211.941 642.285 211.941C651.938 213.4 658.559 218.673 662.148 227.762C663.765 233.012 663.609 238.208 661.68 243.348C659.642 248.23 656.985 252.722 653.711 256.824C649.396 262.058 644.845 267.097 640.059 271.941C640.02 271.941 639.98 271.941 639.941 271.941C639.941 266.629 639.941 261.316 639.941 256.004C647.547 255.747 653.426 252.466 657.578 246.16C661.225 239.885 661.654 233.401 658.867 226.707C655.827 220.543 650.963 216.617 644.277 214.93C642.842 214.677 641.397 214.54 639.941 214.52C639.941 213.66 639.941 212.801 639.941 211.941Z" fill="#FFA800"/>
<path fill-rule="evenodd" clip-rule="evenodd" d="M639.941 214.52C641.397 214.54 642.842 214.677 644.277 214.93C650.963 216.617 655.827 220.543 658.867 226.707C661.654 233.401 661.225 239.885 657.578 246.16C653.426 252.466 647.547 255.747 639.941 256.004C632.436 255.773 626.596 252.57 622.422 246.395C618.306 239.285 618.15 232.097 621.953 224.832C626.107 218.232 632.103 214.795 639.941 214.52Z" fill="#FFFCF0"/>
<path fill-rule="evenodd" clip-rule="evenodd" d="M646.387 218.152C646.387 229.559 646.387 240.965 646.387 252.371C642.102 253.89 637.805 253.929 633.496 252.488C633.457 241.004 633.496 229.519 633.613 218.035C637.232 216.838 640.904 216.662 644.629 217.508C645.239 217.691 645.825 217.906 646.387 218.152Z" fill="#EFEFEF"/>
<path fill-rule="evenodd" clip-rule="evenodd" d="M646.387 218.152C646.426 218.152 646.465 218.152 646.504 218.152C646.465 229.539 646.504 240.906 646.621 252.254C646.581 252.352 646.503 252.391 646.387 252.371C646.387 240.965 646.387 229.559 646.387 218.152Z" fill="#E69BA9"/>
<path fill-rule="evenodd" clip-rule="evenodd" d="M633.145 218.152C633.301 223.816 633.379 229.519 633.379 235.262C633.34 240.965 633.301 246.668 633.262 252.371C626.712 249.507 622.865 244.546 621.719 237.488C621.137 229.53 624.203 223.456 630.918 219.266C631.671 218.889 632.413 218.518 633.145 218.152Z" fill="#6DA544"/>
<path fill-rule="evenodd" clip-rule="evenodd" d="M646.504 218.152C652.094 220.481 655.786 224.544 657.578 230.34C659.377 238.053 657.287 244.479 651.309 249.617C649.869 250.708 648.306 251.587 646.621 252.254C646.504 240.906 646.465 229.539 646.504 218.152Z" fill="#D70127"/>
</g>
<g clip-path="url(#clip6_30_721)">
<path opacity="0.986" fill-rule="evenodd" clip-rule="evenodd" d="M587.298 172.946C588.014 172.946 588.73 172.946 589.446 172.946C589.446 173.734 589.446 174.522 589.446 175.31C582.817 175.482 577.571 178.239 573.709 183.581C570.072 189.151 569.428 195.059 571.775 201.306C574.339 207.342 578.797 211.191 585.149 212.854C586.571 213.121 588.003 213.282 589.446 213.337C589.446 218.207 589.446 223.077 589.446 227.946C589.41 227.946 589.375 227.946 589.339 227.946C585.823 224.341 582.403 220.653 579.08 216.882C576.167 213.492 573.625 209.84 571.453 205.925C569.698 202.807 568.588 199.477 568.123 195.935C567.77 186.881 571.476 180.06 579.241 175.471C581.787 174.138 584.473 173.297 587.298 172.946Z" fill="#FFCC00"/>
<path opacity="0.986" fill-rule="evenodd" clip-rule="evenodd" d="M589.446 172.946C590.162 172.946 590.879 172.946 591.595 172.946C600.443 174.283 606.512 179.117 609.803 187.448C611.285 192.261 611.142 197.024 609.373 201.735C607.505 206.211 605.07 210.329 602.068 214.089C598.113 218.887 593.941 223.506 589.554 227.946C589.518 227.946 589.482 227.946 589.446 227.946C589.446 223.077 589.446 218.207 589.446 213.337C596.419 213.102 601.808 210.094 605.613 204.313C608.915 198.649 609.345 192.776 606.902 186.696C603.349 179.466 597.53 175.67 589.446 175.31C589.446 174.522 589.446 173.734 589.446 172.946Z" fill="#FFA800"/>
<path fill-rule="evenodd" clip-rule="evenodd" d="M589.446 175.31C597.53 175.67 603.349 179.466 606.902 186.696C609.345 192.776 608.915 198.649 605.613 204.313C601.808 210.094 596.419 213.102 589.446 213.337C588.003 213.282 586.571 213.121 585.149 212.854C578.797 211.191 574.339 207.342 571.775 201.306C569.428 195.059 570.072 189.151 573.709 183.581C577.571 178.239 582.817 175.482 589.446 175.31Z" fill="#FFFCF0"/>
<path fill-rule="evenodd" clip-rule="evenodd" d="M595.354 178.64C595.354 189.095 595.354 199.551 595.354 210.007C591.426 211.399 587.487 211.435 583.538 210.114C583.502 199.587 583.538 189.059 583.645 178.532C586.963 177.435 590.329 177.273 593.743 178.049C594.302 178.217 594.839 178.414 595.354 178.64Z" fill="#EFEFEF"/>
<path fill-rule="evenodd" clip-rule="evenodd" d="M595.354 178.64C595.39 178.64 595.426 178.64 595.462 178.64C595.426 189.078 595.462 199.498 595.569 209.899C595.533 209.989 595.461 210.025 595.354 210.007C595.354 199.551 595.354 189.095 595.354 178.64Z" fill="#E69BA9"/>
<path fill-rule="evenodd" clip-rule="evenodd" d="M583.216 178.64C583.359 183.831 583.431 189.059 583.431 194.323C583.395 199.551 583.359 204.779 583.323 210.007C577.256 207.326 573.729 202.707 572.742 196.149C572.334 187.938 575.825 182.101 583.216 178.64Z" fill="#0152B4"/>
<path fill-rule="evenodd" clip-rule="evenodd" d="M595.462 178.64C600.587 180.775 603.97 184.499 605.613 189.812C607.262 196.882 605.346 202.772 599.866 207.482C598.546 208.483 597.114 209.288 595.569 209.899C595.462 199.498 595.426 189.078 595.462 178.64Z" fill="#D70127"/>
</g>
<g clip-path="url(#clip7_30_721)">
<path opacity="0.986" fill-rule="evenodd" clip-rule="evenodd" d="M628.298 149.946C629.014 149.946 629.73 149.946 630.446 149.946C630.446 150.734 630.446 151.522 630.446 152.31C623.261 152.562 617.765 155.713 613.957 161.763C611.029 167.087 610.635 172.602 612.775 178.306C615.339 184.342 619.797 188.191 626.149 189.854C627.571 190.121 629.003 190.282 630.446 190.337C630.446 195.207 630.446 200.077 630.446 204.946C630.41 204.946 630.375 204.946 630.339 204.946C626.823 201.341 623.403 197.653 620.08 193.882C617.167 190.492 614.625 186.84 612.453 182.925C610.698 179.807 609.588 176.477 609.123 172.935C608.77 163.881 612.476 157.06 620.241 152.471C622.787 151.138 625.473 150.297 628.298 149.946Z" fill="#FFCC00"/>
<path opacity="0.986" fill-rule="evenodd" clip-rule="evenodd" d="M630.446 149.946C631.162 149.946 631.879 149.946 632.595 149.946C641.443 151.283 647.512 156.117 650.803 164.448C652.285 169.261 652.142 174.024 650.373 178.735C648.505 183.211 646.07 187.329 643.068 191.089C639.113 195.887 634.941 200.506 630.554 204.946C630.518 204.946 630.482 204.946 630.446 204.946C630.446 200.077 630.446 195.207 630.446 190.337C637.419 190.102 642.808 187.094 646.613 181.313C649.956 175.562 650.35 169.618 647.795 163.481C644.928 157.609 640.291 153.974 633.884 152.578C632.743 152.414 631.598 152.324 630.446 152.31C630.446 151.522 630.446 150.734 630.446 149.946Z" fill="#FFA800"/>
<path fill-rule="evenodd" clip-rule="evenodd" d="M630.446 152.31C631.598 152.324 632.743 152.414 633.884 152.578C640.291 153.974 644.928 157.609 647.795 163.481C650.35 169.618 649.956 175.562 646.613 181.313C642.808 187.094 637.419 190.102 630.446 190.337C629.003 190.282 627.571 190.121 626.149 189.854C619.797 188.191 615.339 184.342 612.775 178.306C610.635 172.602 611.029 167.087 613.957 161.763C617.765 155.713 623.261 152.562 630.446 152.31Z" fill="#FFFCF0"/>
<path fill-rule="evenodd" clip-rule="evenodd" d="M646.022 165.308C635.603 165.308 625.183 165.308 614.763 165.308C617.162 159.49 621.459 155.963 627.653 154.727C635.397 153.845 641.251 156.728 645.217 163.374C645.56 163.992 645.828 164.636 646.022 165.308Z" fill="black"/>
<path fill-rule="evenodd" clip-rule="evenodd" d="M614.763 165.308C625.183 165.308 635.603 165.308 646.022 165.308C646.882 167.208 647.276 169.214 647.204 171.323C647.247 173.403 646.889 175.408 646.13 177.339C635.674 177.339 625.218 177.339 614.763 177.339C613.704 174.49 613.4 171.553 613.85 168.53C614.054 167.425 614.359 166.35 614.763 165.308Z" fill="#D70427"/>
<path fill-rule="evenodd" clip-rule="evenodd" d="M614.763 177.339C625.218 177.339 635.674 177.339 646.13 177.339C643.722 182.951 639.532 186.442 633.562 187.813C625.637 188.89 619.639 186.007 615.568 179.165C615.289 178.558 615.02 177.949 614.763 177.339Z" fill="#FED944"/>
</g>
<g clip-path="url(#clip8_30_721)">
<path opacity="0.986" fill-rule="evenodd" clip-rule="evenodd" d="M561.817 116.935C562.69 116.935 563.562 116.935 564.435 116.935C564.435 117.894 564.435 118.854 564.435 119.813C556.359 120.023 549.968 123.382 545.264 129.89C540.833 136.675 540.048 143.872 542.908 151.481C546.031 158.835 551.462 163.524 559.2 165.549C560.932 165.875 562.677 166.071 564.435 166.138C564.435 172.07 564.435 178.002 564.435 183.935C564.391 183.935 564.347 183.935 564.304 183.935C560.021 179.543 555.855 175.05 551.807 170.456C548.258 166.327 545.161 161.877 542.516 157.108C540.377 153.31 539.025 149.254 538.459 144.938C538.029 133.91 542.544 125.6 552.003 120.01C555.105 118.387 558.376 117.362 561.817 116.935Z" fill="#FFCC00"/>
<path opacity="0.986" fill-rule="evenodd" clip-rule="evenodd" d="M564.435 116.935C565.307 116.935 566.179 116.935 567.052 116.935C577.831 118.563 585.224 124.452 589.232 134.601C591.038 140.464 590.863 146.265 588.709 152.005C586.433 157.457 583.467 162.473 579.811 167.054C574.992 172.898 569.91 178.525 564.565 183.935C564.522 183.935 564.478 183.935 564.435 183.935C564.435 178.002 564.435 172.07 564.435 166.138C572.928 165.851 579.493 162.187 584.129 155.146C588.151 148.245 588.674 141.091 585.699 133.685C581.371 124.877 574.283 120.253 564.435 119.813C564.435 118.854 564.435 117.894 564.435 116.935Z" fill="#FFA800"/>
<path fill-rule="evenodd" clip-rule="evenodd" d="M564.435 119.813C574.283 120.253 581.371 124.877 585.699 133.685C588.674 141.091 588.151 148.245 584.129 155.146C579.493 162.187 572.928 165.851 564.435 166.138C562.677 166.071 560.932 165.875 559.2 165.549C551.462 163.524 546.031 158.835 542.908 151.481C540.048 143.872 540.833 136.675 545.264 129.89C549.968 123.382 556.359 120.023 564.435 119.813Z" fill="#FFFCF0"/>
<path fill-rule="evenodd" clip-rule="evenodd" d="M567.183 122.692C567.183 128.537 567.183 134.382 567.183 140.228C573.028 140.228 578.873 140.228 584.718 140.228C584.892 142.06 584.892 143.892 584.718 145.724C578.873 145.724 573.028 145.724 567.183 145.724C567.183 151.525 567.183 157.327 567.183 163.128C567.037 163.231 566.863 163.297 566.659 163.324C564.992 163.43 563.334 163.409 561.687 163.259C561.687 157.414 561.687 151.569 561.687 145.724C555.841 145.724 549.996 145.724 544.151 145.724C543.982 143.89 543.982 142.058 544.151 140.228C549.996 140.228 555.841 140.228 561.687 140.228C561.687 134.382 561.687 128.537 561.687 122.692C563.517 122.526 565.349 122.526 567.183 122.692Z" fill="#D80328"/>
<path fill-rule="evenodd" clip-rule="evenodd" d="M567.183 122.692C568.075 122.787 568.948 122.962 569.8 123.216C569.756 126.684 569.8 130.13 569.931 133.554C572.243 131.329 574.511 129.061 576.735 126.749C577.033 126.873 577.295 127.048 577.521 127.272C575.038 129.842 572.508 132.372 569.931 134.862C569.758 135.714 569.758 136.587 569.931 137.479C570.01 137.463 570.054 137.42 570.062 137.349C572.94 134.382 575.863 131.46 578.829 128.581C579.599 129.131 580.166 129.829 580.53 130.675C578.332 132.939 576.107 135.185 573.856 137.414C577.259 137.479 580.661 137.501 584.063 137.479C584.361 138.373 584.579 139.289 584.718 140.228C578.873 140.228 573.028 140.228 567.183 140.228C567.183 134.382 567.183 128.537 567.183 122.692Z" fill="#EFEDEE"/>
<path fill-rule="evenodd" clip-rule="evenodd" d="M561.687 122.692C561.687 128.537 561.687 134.382 561.687 140.228C555.841 140.228 549.996 140.228 544.151 140.228C544.222 139.26 544.44 138.344 544.806 137.479C548.208 137.501 551.611 137.479 555.013 137.414C552.718 135.141 550.45 132.851 548.208 130.544C548.352 130.297 548.527 130.079 548.731 129.89C551.279 132.371 553.809 134.88 556.321 137.414C557.194 137.501 558.066 137.501 558.938 137.414C555.946 134.443 552.98 131.455 550.04 128.45C550.46 127.934 550.94 127.476 551.479 127.076C551.686 126.933 551.904 126.824 552.134 126.749C554.358 129.061 556.627 131.329 558.938 133.554C559.069 130.13 559.113 126.684 559.069 123.216C559.925 122.96 560.797 122.785 561.687 122.692Z" fill="#EFEEEF"/>
<path fill-rule="evenodd" clip-rule="evenodd" d="M569.8 123.216C569.969 123.185 570.1 123.228 570.192 123.347C569.932 126.703 569.845 130.105 569.931 133.554C569.8 130.13 569.757 126.684 569.8 123.216Z" fill="#AFC5DF"/>
<path fill-rule="evenodd" clip-rule="evenodd" d="M558.808 123.347C558.938 126.727 558.982 130.129 558.938 133.554C556.627 131.329 554.358 129.061 552.134 126.749C554.069 125.105 556.293 123.971 558.808 123.347Z" fill="#0653B4"/>
<path fill-rule="evenodd" clip-rule="evenodd" d="M558.808 123.347C558.852 123.237 558.94 123.193 559.069 123.216C559.113 126.684 559.069 130.13 558.938 133.554C558.982 130.129 558.938 126.727 558.808 123.347Z" fill="#B0C6DF"/>
<path fill-rule="evenodd" clip-rule="evenodd" d="M570.192 123.347C572.642 124.004 574.823 125.138 576.735 126.749C574.511 129.061 572.243 131.329 569.931 133.554C569.845 130.105 569.932 126.703 570.192 123.347Z" fill="#0453B4"/>
<path fill-rule="evenodd" clip-rule="evenodd" d="M577.52 127.272C578 127.665 578.437 128.101 578.829 128.581C575.863 131.46 572.94 134.382 570.062 137.349C569.932 136.545 569.888 135.716 569.931 134.862C572.508 132.372 575.038 129.842 577.52 127.272Z" fill="#D80027"/>
<path fill-rule="evenodd" clip-rule="evenodd" d="M550.04 128.45C552.98 131.455 555.946 134.443 558.938 137.414C558.066 137.501 557.194 137.501 556.321 137.414C553.809 134.88 551.279 132.371 548.731 129.89C549.075 129.328 549.511 128.848 550.04 128.45Z" fill="#D80C2C"/>
<path fill-rule="evenodd" clip-rule="evenodd" d="M548.208 130.544C550.45 132.851 552.718 135.141 555.013 137.414C551.611 137.479 548.208 137.501 544.806 137.479C545.421 134.896 546.555 132.585 548.208 130.544Z" fill="#0252B4"/>
<path fill-rule="evenodd" clip-rule="evenodd" d="M580.53 130.675C580.661 130.664 580.77 130.707 580.857 130.806C582.346 132.823 583.415 135.048 584.063 137.479C580.661 137.501 577.259 137.479 573.856 137.414C576.107 135.185 578.332 132.939 580.53 130.675Z" fill="#0252B4"/>
<path fill-rule="evenodd" clip-rule="evenodd" d="M569.931 134.862C569.888 135.716 569.932 136.545 570.062 137.349C570.054 137.42 570.01 137.463 569.931 137.479C569.758 136.587 569.758 135.714 569.931 134.862Z" fill="#EAB1BB"/>
<path fill-rule="evenodd" clip-rule="evenodd" d="M544.151 145.724C549.996 145.724 555.841 145.724 561.687 145.724C561.687 151.569 561.687 157.414 561.687 163.259C560.787 163.201 559.915 163.027 559.069 162.735C559.113 159.245 559.069 155.755 558.938 152.267C558.859 152.283 558.815 152.326 558.808 152.397C556.583 154.666 554.358 156.934 552.134 159.202C551.836 159.078 551.574 158.904 551.349 158.679C553.83 156.132 556.339 153.601 558.873 151.089C558.96 150.216 558.96 149.344 558.873 148.472C555.902 151.421 552.958 154.387 550.04 157.37C549.284 156.789 548.673 156.091 548.208 155.276C550.476 153.095 552.701 150.871 554.882 148.603C554.953 148.595 554.996 148.551 555.013 148.472C551.568 148.341 548.122 148.297 544.675 148.341C544.484 147.475 544.31 146.602 544.151 145.724Z" fill="#EFEFEF"/>
<path fill-rule="evenodd" clip-rule="evenodd" d="M584.718 145.724C584.585 146.604 584.41 147.477 584.194 148.341C580.747 148.297 577.301 148.341 573.856 148.472C573.873 148.551 573.916 148.595 573.987 148.603C576.168 150.871 578.393 153.095 580.661 155.276C580.574 155.625 580.356 155.843 580.007 155.931C577.477 153.488 574.991 151.002 572.548 148.472C571.696 148.299 570.823 148.299 569.931 148.472C569.947 148.551 569.99 148.595 570.062 148.603C573.028 151.481 575.95 154.404 578.829 157.37C578.279 158.14 577.582 158.707 576.735 159.071C574.467 156.89 572.243 154.666 570.062 152.397C570.054 152.326 570.01 152.283 569.931 152.267C569.8 155.711 569.756 159.157 569.8 162.604C568.979 162.961 568.107 163.135 567.183 163.128C567.183 157.327 567.183 151.525 567.183 145.724C573.028 145.724 578.873 145.724 584.718 145.724Z" fill="#EFEEEE"/>
<path fill-rule="evenodd" clip-rule="evenodd" d="M544.675 148.341C548.122 148.297 551.568 148.341 555.013 148.472C554.996 148.551 554.953 148.595 554.882 148.603C553.225 148.515 551.545 148.472 549.844 148.472C548.118 148.472 546.439 148.559 544.806 148.733C544.687 148.641 544.644 148.51 544.675 148.341Z" fill="#7EA4D3"/>
<path fill-rule="evenodd" clip-rule="evenodd" d="M572.548 148.472C571.694 148.429 570.866 148.473 570.062 148.603C569.99 148.595 569.947 148.551 569.931 148.472C570.823 148.299 571.696 148.299 572.548 148.472Z" fill="#E58495"/>
<path fill-rule="evenodd" clip-rule="evenodd" d="M584.194 148.341C584.217 148.471 584.173 148.558 584.063 148.603C580.705 148.428 577.346 148.428 573.987 148.603C573.916 148.595 573.873 148.551 573.856 148.472C577.301 148.341 580.747 148.297 584.194 148.341Z" fill="#7FA5D3"/>
<path fill-rule="evenodd" clip-rule="evenodd" d="M554.882 148.603C552.701 150.871 550.476 153.095 548.208 155.276C546.597 153.363 545.462 151.182 544.806 148.733C546.439 148.559 548.118 148.472 549.844 148.472C551.545 148.472 553.225 148.515 554.882 148.603Z" fill="#0553B4"/>
<path fill-rule="evenodd" clip-rule="evenodd" d="M570.062 148.603C570.866 148.473 571.694 148.429 572.548 148.472C574.991 151.002 577.477 153.488 580.007 155.931C579.767 156.521 579.374 157.001 578.829 157.37C575.95 154.404 573.028 151.481 570.062 148.603Z" fill="#D80027"/>
<path fill-rule="evenodd" clip-rule="evenodd" d="M584.063 148.603C583.373 151.073 582.239 153.298 580.661 155.276C578.393 153.095 576.168 150.871 573.987 148.603C577.346 148.428 580.705 148.428 584.063 148.603Z" fill="#0453B4"/>
<path fill-rule="evenodd" clip-rule="evenodd" d="M551.349 158.679C550.869 158.286 550.433 157.85 550.04 157.37C552.958 154.387 555.902 151.421 558.873 148.472C558.96 149.344 558.96 150.216 558.873 151.089C556.339 153.601 553.83 156.132 551.349 158.679Z" fill="#D80C2B"/>
<path fill-rule="evenodd" clip-rule="evenodd" d="M558.808 152.397C558.815 152.326 558.859 152.283 558.938 152.267C559.069 155.755 559.113 159.245 559.069 162.735C558.94 162.758 558.852 162.714 558.808 162.604C558.982 159.202 558.982 155.8 558.808 152.397Z" fill="#B0C6DF"/>
<path fill-rule="evenodd" clip-rule="evenodd" d="M570.062 152.397C569.931 155.777 569.887 159.18 569.931 162.604C569.887 162.604 569.843 162.604 569.8 162.604C569.756 159.157 569.8 155.711 569.931 152.267C570.01 152.283 570.054 152.326 570.062 152.397Z" fill="#B1C7E0"/>
<path fill-rule="evenodd" clip-rule="evenodd" d="M558.808 152.397C558.982 155.8 558.982 159.202 558.808 162.604C556.303 161.985 554.079 160.851 552.134 159.202C554.358 156.934 556.583 154.666 558.808 152.397Z" fill="#0252B4"/>
<path fill-rule="evenodd" clip-rule="evenodd" d="M570.062 152.397C572.243 154.666 574.467 156.89 576.735 159.071C576.747 159.202 576.703 159.311 576.605 159.398C574.57 160.855 572.345 161.924 569.931 162.604C569.887 159.18 569.931 155.777 570.062 152.397Z" fill="#0152B4"/>
</g>
<g clip-path="url(#clip9_30_721)">
<path opacity="0.986" fill-rule="evenodd" clip-rule="evenodd" d="M945.117 42.9297C946.055 42.9297 946.992 42.9297 947.93 42.9297C947.93 43.9609 947.93 44.9922 947.93 46.0234C939.251 46.2489 932.384 49.8583 927.328 56.8516C922.567 64.1441 921.723 71.8785 924.797 80.0547C928.153 87.957 933.989 92.996 942.305 95.1719C944.166 95.522 946.041 95.733 947.93 95.8047C947.93 102.18 947.93 108.555 947.93 114.93C947.883 114.93 947.836 114.93 947.789 114.93C943.186 110.21 938.71 105.382 934.359 100.445C930.546 96.0078 927.218 91.2265 924.375 86.1016C922.077 82.0201 920.624 77.6607 920.016 73.0234C919.554 61.1714 924.405 52.2417 934.57 46.2344C937.904 44.4901 941.419 43.3886 945.117 42.9297Z" fill="#FFCC00"/>
<path opacity="0.986" fill-rule="evenodd" clip-rule="evenodd" d="M947.93 42.9297C948.867 42.9297 949.805 42.9297 950.742 42.9297C962.325 44.6796 970.271 51.0077 974.578 61.9141C976.518 68.2148 976.331 74.4491 974.016 80.6172C971.57 86.4759 968.382 91.8665 964.453 96.7891C959.275 103.07 953.814 109.117 948.07 114.93C948.023 114.93 947.977 114.93 947.93 114.93C947.93 108.555 947.93 102.18 947.93 95.8047C957.057 95.4969 964.112 91.5594 969.094 83.9922C973.416 76.5755 973.978 68.8879 970.781 60.9297C966.13 51.4644 958.513 46.4957 947.93 46.0234C947.93 44.9922 947.93 43.9609 947.93 42.9297Z" fill="#FFA800"/>
<path fill-rule="evenodd" clip-rule="evenodd" d="M947.93 46.0234C958.513 46.4957 966.13 51.4644 970.781 60.9297C973.978 68.8879 973.416 76.5755 969.094 83.9922C964.112 91.5594 957.057 95.4969 947.93 95.8047C946.041 95.733 944.166 95.522 942.305 95.1719C933.989 92.996 928.153 87.957 924.797 80.0547C921.723 71.8785 922.567 64.1441 927.328 56.8516C932.384 49.8583 939.251 46.2489 947.93 46.0234Z" fill="#FFFCF0"/>
<path fill-rule="evenodd" clip-rule="evenodd" d="M968.32 63.0391C954.68 63.0391 941.039 63.0391 927.398 63.0391C930.541 55.4219 936.166 50.8047 944.273 49.1875C954.408 48.0323 962.072 51.8058 967.266 60.5078C967.736 61.3077 968.088 62.1514 968.32 63.0391Z" fill="#EFEFEF"/>
<path fill-rule="evenodd" clip-rule="evenodd" d="M927.398 63.0391C941.039 63.0391 954.68 63.0391 968.32 63.0391C969.748 66.3525 970.24 69.8211 969.797 73.4453C969.538 75.2751 969.093 77.0564 968.461 78.7891C954.773 78.7891 941.086 78.7891 927.398 78.7891C925.526 73.5414 925.526 68.2914 927.398 63.0391Z" fill="#0951B3"/>
<path fill-rule="evenodd" clip-rule="evenodd" d="M927.398 78.7891C941.086 78.7891 954.773 78.7891 968.461 78.7891C964.992 86.7617 958.946 91.4256 950.32 92.7812C940.615 93.4023 933.326 89.5351 928.453 81.1797C928.087 80.3853 927.736 79.5884 927.398 78.7891Z" fill="#D70127"/>
</g>
<g clip-path="url(#clip10_30_721)">
<path opacity="0.986" fill-rule="evenodd" clip-rule="evenodd" d="M362.817 427.935C363.69 427.935 364.562 427.935 365.435 427.935C365.435 428.894 365.435 429.854 365.435 430.813C357.359 431.023 350.968 434.382 346.264 440.89C341.833 447.676 341.048 454.873 343.908 462.481C347.031 469.835 352.462 474.524 360.2 476.549C361.932 476.875 363.677 477.071 365.435 477.138C365.435 483.07 365.435 489.002 365.435 494.935C365.391 494.935 365.347 494.935 365.304 494.935C361.021 490.543 356.855 486.05 352.807 481.456C349.258 477.327 346.161 472.877 343.516 468.108C341.377 464.31 340.025 460.254 339.459 455.938C339.029 444.91 343.544 436.6 353.003 431.01C356.105 429.387 359.376 428.362 362.817 427.935Z" fill="#FFCC00"/>
<path opacity="0.986" fill-rule="evenodd" clip-rule="evenodd" d="M365.435 427.935C366.307 427.935 367.179 427.935 368.052 427.935C378.831 429.563 386.224 435.452 390.232 445.601C392.038 451.464 391.863 457.265 389.709 463.005C387.433 468.457 384.467 473.473 380.811 478.054C375.992 483.898 370.91 489.525 365.565 494.935C365.522 494.935 365.478 494.935 365.435 494.935C365.435 489.002 365.435 483.07 365.435 477.138C373.928 476.851 380.493 473.187 385.129 466.146C389.151 459.244 389.674 452.09 386.699 444.685C382.371 435.877 375.283 431.253 365.435 430.813C365.435 429.854 365.435 428.894 365.435 427.935Z" fill="#FFA800"/>
<path fill-rule="evenodd" clip-rule="evenodd" d="M365.435 430.813C375.283 431.253 382.371 435.877 386.699 444.685C389.674 452.09 389.151 459.244 385.129 466.146C380.493 473.187 373.928 476.851 365.435 477.138C363.677 477.071 361.932 476.875 360.2 476.549C352.462 474.524 347.031 469.835 343.908 462.481C341.048 454.873 341.833 447.676 346.264 440.89C350.968 434.382 357.359 431.023 365.435 430.813Z" fill="#FFFCF0"/>
<path fill-rule="evenodd" clip-rule="evenodd" d="M363.079 433.562C373.172 433.055 380.304 437.373 384.475 446.517C387.1 454.047 385.966 460.939 381.072 467.192C375.066 473.571 367.803 475.686 359.284 473.539C351.27 470.573 346.537 464.881 345.086 456.462C344.436 447.575 347.861 440.792 355.358 436.113C357.806 434.825 360.379 433.974 363.079 433.562Z" fill="#6DA544"/>
<path fill-rule="evenodd" clip-rule="evenodd" d="M365.304 441.282C365.441 441.263 365.572 441.284 365.696 441.348C371.367 445.535 377.037 449.723 382.708 453.91C376.969 458.188 371.211 462.441 365.435 466.669C359.658 462.441 353.9 458.188 348.161 453.91C353.884 449.698 359.598 445.489 365.304 441.282Z" fill="#FDD944"/>
<path fill-rule="evenodd" clip-rule="evenodd" d="M372.632 455.284C368.739 451.683 364.159 450.2 358.892 450.835C361.021 447.049 364.162 445.85 368.313 447.236C371.625 448.909 373.065 451.591 372.632 455.284Z" fill="#0D54B4"/>
<path fill-rule="evenodd" clip-rule="evenodd" d="M358.892 450.835C364.159 450.2 368.739 451.683 372.632 455.284C372.37 456.333 371.934 457.293 371.323 458.163C369.681 456.031 367.543 454.613 364.911 453.91C362.674 453.279 360.449 453.3 358.237 453.976C358.128 452.845 358.346 451.798 358.892 450.835Z" fill="#EDEEEF"/>
<path fill-rule="evenodd" clip-rule="evenodd" d="M371.323 458.163C369.456 460.641 366.969 461.622 363.864 461.107C360.238 460.056 358.363 457.679 358.237 453.976C360.449 453.3 362.674 453.279 364.911 453.91C367.543 454.613 369.681 456.031 371.323 458.163Z" fill="#0853B4"/>
</g>
</g>
<defs>
<clipPath id="clip0_30_721">
<rect width="1320" height="758" fill="white"/>
</clipPath>
<clipPath id="clip1_30_721">
<rect width="72" height="72" fill="white" transform="translate(1020 162)"/>
</clipPath>
<clipPath id="clip2_30_721">
<rect width="67" height="67" fill="white" transform="translate(136 215)"/>
</clipPath>
<clipPath id="clip3_30_721">
<rect width="66" height="66" fill="white" transform="translate(1103 226)"/>
</clipPath>
<clipPath id="clip4_30_721">
<rect width="55" height="55" fill="white" transform="translate(535 218)"/>
</clipPath>
<clipPath id="clip5_30_721">
<rect width="60" height="60" fill="white" transform="translate(610 212)"/>
</clipPath>
<clipPath id="clip6_30_721">
<rect width="55" height="55" fill="white" transform="translate(562 173)"/>
</clipPath>
<clipPath id="clip7_30_721">
<rect width="55" height="55" fill="white" transform="translate(603 150)"/>
</clipPath>
<clipPath id="clip8_30_721">
<rect width="67" height="67" fill="white" transform="translate(531 117)"/>
</clipPath>
<clipPath id="clip9_30_721">
<rect width="72" height="72" fill="white" transform="translate(912 43)"/>
</clipPath>
<clipPath id="clip10_30_721">
<rect width="67" height="67" fill="white" transform="translate(332 428)"/>
</clipPath>
</defs>
</svg>
