<svg width="1500" height="1641" viewBox="0 0 1500 1641" fill="none" xmlns="http://www.w3.org/2000/svg">
<g clip-path="url(#clip0_779_278)">
<path d="M428.585 1256.35C429.376 1256.59 486.403 1233.55 502.372 1226.56C546.06 1207.52 576.997 1191.08 604.991 1172.04C632.86 1153.09 654.212 1134.6 671.573 1114.36C677.097 1107.91 690.171 1089.4 694.502 1081.9C713.076 1049.7 725.087 1013.03 733.141 964.299C739.885 923.451 744.604 896.271 747.357 882.322C760.206 817.865 775.799 774.621 802.171 730.354C807.042 722.146 826.452 693.979 832.133 686.859C880.66 625.907 942.739 579.314 1014.77 549.648C1041.46 538.671 1075.69 529.488 1101.58 526.333C1105.43 525.848 1108.44 525.274 1108.25 525.026C1107.5 524.033 1085.9 527.365 1071.41 530.694C1027.88 540.654 981.621 560.58 942.164 586.207C938.845 588.366 935.718 590.418 935.209 590.728C927.417 595.515 907.469 610.359 895.811 620.038C835.515 670.233 789.957 735.415 766.145 805.547C754.43 840.026 748.011 868.914 735.946 941.071C733.34 956.732 730.335 974.032 729.294 979.593C722.33 1016.47 712.105 1047.01 697.461 1074.66C692.231 1084.53 679.12 1103.97 672.128 1112.23C644.547 1144.68 603.162 1175.69 552.342 1201.88C527.503 1214.71 506.214 1224.16 461.44 1242.35C443.168 1249.74 428.179 1255.89 428.123 1255.97C428.04 1256.1 428.285 1256.26 428.585 1256.35Z" fill="black"/>
<path d="M445.653 1268.09C446.211 1268.41 449.054 1267.3 477.849 1255.67C551.555 1225.83 595.838 1202.05 636.215 1170.6C675.628 1139.87 700.48 1108 718.144 1065.57C728.393 1040.96 735.811 1013.41 741.453 978.733C741.833 976.246 742.223 974.183 742.279 974.101C742.335 974.019 742.891 970.398 743.563 966.079C744.223 961.691 744.82 958.097 744.875 958.015C744.931 957.934 745.874 952.605 746.951 946.113C756.752 886.925 764.071 854.171 774.624 822.364C788.126 781.578 808.436 742.799 834.425 708.123C838.072 703.202 841.802 698.336 842.674 697.318C843.574 696.258 845.929 693.324 848.007 690.797C856.803 680.065 869.39 666.481 880.844 655.349C918.813 618.498 965.112 587.377 1014.89 565.253C1033.03 557.18 1057.01 548.957 1076.7 544.033C1086.63 541.538 1106.21 537.845 1115.03 536.804C1119.79 536.218 1123.53 535.541 1123.34 535.293C1122.49 534.177 1098 537.988 1081.71 541.766C1013.85 557.496 943.463 595.868 887.752 647.393C870.93 662.991 857.472 677.416 841.499 697.115C833.796 706.68 813.899 735.65 808.147 745.766C775.265 803.454 761.655 848.168 744.441 954.973C741.99 970.143 740.887 976.497 738.584 989.26C726.579 1055.37 704.915 1102.36 669.351 1139.53C642.969 1167.08 603.996 1194.88 560.26 1217.42C533.412 1231.27 509.595 1241.81 463.258 1260.36C446.195 1267.2 445.082 1267.7 445.653 1268.09Z" fill="black"/>
<path d="M823.925 746.952C792.552 797.427 775.585 843.916 761.785 917.22C758.796 932.919 754.201 960.004 750.085 985.684C740.485 1045.37 727.316 1084.35 704.39 1120.57C673.039 1170.23 611.519 1215.65 523.29 1254.29C510.894 1259.71 504.738 1262.27 483.073 1271.04C471.23 1275.82 462.573 1279.6 462.899 1279.82C464.244 1280.74 521.21 1257 546.424 1245.02C587.503 1225.51 620.874 1205.06 648.713 1182.39C674.095 1161.75 690.501 1143.96 704.969 1121.56C717.381 1102.19 726.089 1083.87 734.029 1060.2C741.954 1036.63 745.512 1020.19 754.614 965.181C764.225 907.237 770.216 878.714 779.261 848.508C784.288 831.569 788.426 820.055 794.774 805.031C802.202 787.456 808.453 775.292 821.456 753.033C822.472 751.277 826.308 745.29 829.976 739.726C874.824 671.732 941.67 615.069 1019.07 579.444C1056.7 562.121 1097.4 550.534 1133.84 546.682C1136.6 546.406 1138.97 546.168 1139.1 546.142C1139.24 546.116 1139.05 545.868 1138.6 545.562C1137.05 544.508 1114.76 547.724 1098.03 551.443C1022.74 568.09 946.82 610.394 887.016 668.984C863.718 691.818 840.014 721.122 823.925 746.952Z" fill="black"/>
<path d="M844.499 741.968C844.525 742.105 841.092 747.411 836.883 753.682C813.631 788.369 796.969 825.034 784.588 868.554C777.142 894.833 770.848 924.941 763.028 972.103C756.623 1010.61 755.312 1018.5 753.584 1027.17C742.701 1082.34 723.69 1125.35 695.441 1158.96C673.479 1185.1 639.589 1212.18 600.572 1234.89C571.312 1251.93 542.523 1265.65 498.574 1283.51C488.613 1287.53 480.274 1290.93 480.122 1291.07C479.902 1291.22 480.022 1291.48 480.348 1291.7C481.164 1292.26 517.559 1277.26 542.079 1266.31C581.773 1248.48 618.905 1226.88 647.446 1205.11C668.404 1189.04 682.713 1175.74 697.236 1158.69C702.206 1152.88 717.621 1130.23 721.44 1123.22C734.377 1099.31 743.273 1075.8 750.361 1047.07C754.012 1032.24 757.092 1015.71 763.604 976.077C775.874 901.254 785.087 863.877 801.229 823.157C814.941 788.724 837.93 750.215 864.294 717.705C888.33 688.089 920.745 657.907 953.528 634.723C970.808 622.482 993.083 608.864 1009.34 600.582C1034.62 587.635 1058.19 577.888 1081.39 570.807C1104.05 563.899 1130.6 558.628 1152.94 556.576C1154.41 556.439 1154.43 556.398 1153.73 555.858C1151.73 554.498 1121.87 559.191 1101.73 564.056C1034.51 580.339 965.091 618.173 909.224 668.874C887.655 688.466 866.861 711.392 851.309 732.751C848.52 736.585 845.83 740.187 845.36 740.703C844.861 741.259 844.5 741.79 844.499 741.968Z" fill="black"/>
<path d="M836.714 780.138C807.653 829.321 791.92 874.261 778.462 946.185C776.206 958.263 773.635 973.172 766.705 1014.91C760.78 1050.52 756.319 1069.7 748.821 1091.58C732.483 1139.51 708.25 1175.21 670.427 1207.02C648.721 1225.33 627.492 1239.77 599.243 1255.6C579.305 1266.75 552.671 1279.84 533.571 1287.92C522.825 1292.49 510.048 1297.76 503.742 1300.28C499.182 1302.07 497.146 1303.13 497.554 1303.41C498.532 1304.08 528.883 1291.48 554.162 1279.84C578.891 1268.49 595.989 1259.41 619.983 1244.93C631.009 1238.29 649.446 1225.4 660.106 1217.01C680.794 1200.64 695.15 1186.65 709.131 1169.18C714.244 1162.81 726.166 1144.59 730.738 1136.12C745.319 1109.26 756.017 1078.03 763.297 1040.95C764.277 1036.01 766.935 1020.62 769.249 1006.79C779.323 946.234 782.98 926.75 789.113 901.787C800.183 856.598 813.379 823.187 835.217 784.791C841.108 774.471 861.617 744.603 869.999 734.128C909.529 684.904 960.477 643.095 1017.3 613.166C1067.64 586.708 1117.13 571.493 1168.03 566.843C1169.49 566.706 1169.52 566.666 1168.81 566.125C1167.55 565.265 1148.85 567.583 1133.63 570.482C1106.53 575.679 1085.88 581.743 1060.04 592.099C1022.41 607.15 985.145 628.24 952.029 653.228C922.305 675.688 898.144 698.651 875.334 726.115C871.691 730.503 867.869 735.066 866.914 736.207C863.756 739.969 840.18 774.257 836.714 780.138Z" fill="black"/>
<path d="M846.733 790.837C821.286 832.868 805.172 874.862 792.645 931.657C789.049 947.898 784.104 974.446 779.992 999.77C770.341 1059 767.059 1075.22 760.18 1096.81C750.642 1127.03 740.49 1148.79 725.839 1170.4C713.395 1188.86 701.702 1201.92 683.26 1218.14C643.765 1252.94 594.935 1281.38 524.684 1310.53C519.16 1312.86 514.761 1314.94 514.95 1315.19C515.369 1315.72 514.463 1316 522.376 1312.78C591.123 1284.88 643.503 1254.55 683.436 1219.64C701.864 1203.52 713.129 1190.83 726.279 1171.59C744.998 1144.09 756.233 1117.94 766.849 1077.1C770.476 1063.27 771.979 1055.28 779.928 1007.49C783.144 988.302 786.992 966.082 788.495 958.089C798.896 903.191 810.234 865.41 827.119 829.733C863.839 752.206 924.651 686.002 1002.58 638.734C1059.42 604.22 1119.88 583.152 1177.51 577.716C1181.32 577.382 1184.28 576.889 1184.09 576.641C1183.61 576.021 1182.23 576.035 1174.74 576.787C1155.54 578.704 1131.85 583.358 1111.77 589.1C1090.12 595.319 1070.71 602.531 1049.41 612.449C1035.63 618.837 1028.07 622.764 1012.68 631.519C959.427 661.905 913.898 700.835 876.303 748.27C870.427 755.675 851.768 782.562 846.733 790.837Z" fill="black"/>
<path d="M860.367 795.699C860.393 795.836 858.445 799.048 856.04 802.845C851.326 810.384 845.044 821.453 840.801 829.791C816.182 878.057 802.411 926.601 788.187 1014.9C785.94 1028.9 780.386 1061.6 779.389 1066.83C765.369 1140.28 739.126 1190.85 694.353 1230.77C654.661 1266.21 605.534 1295.52 539.732 1323.04C535.954 1324.65 532.573 1326.11 532.203 1326.22C531.817 1326.43 531.801 1326.72 532.168 1326.97C532.861 1327.44 540.65 1324.33 556.236 1317.38C604.71 1295.86 641.84 1274.44 673.75 1249.65C686.657 1239.62 694.815 1232.46 707.929 1219.59C711.949 1215.7 720.74 1205.5 725.938 1198.83C748.338 1169.95 764.394 1135.14 775.322 1091.83C778.614 1078.66 781.471 1063.95 785.9 1036.93C795.623 977.331 800.476 951.794 806.805 926.367C819.505 875.542 834.993 838.675 861.454 796.38C886.803 755.894 924.377 714.715 964.519 683.523C1018.3 641.671 1079.07 611.559 1139.2 597.017C1155.93 592.942 1178.24 589.261 1193.54 588.088C1200.49 587.509 1200.33 587.576 1199.31 586.882C1197.48 585.634 1171.66 588.845 1153.2 592.575C1131.82 596.894 1112.69 602.384 1092.74 609.879C1062.23 621.3 1033.87 635.368 1005.46 653.173C992.132 661.536 973.916 674.275 964.439 681.975C962.343 683.653 958.426 686.779 955.777 688.917C948.66 694.641 932.797 708.743 925.432 715.97C908.242 732.811 893.765 749.348 878.831 769.097C873.103 776.723 860.29 795.11 860.367 795.699Z" fill="black"/>
<path d="M869.84 807.461C844.155 847.478 826.397 889.607 814.047 939.656C807.714 965.439 804.237 983.432 795.996 1033.05C794.368 1042.63 792.488 1054.07 791.732 1058.51C785.397 1096.83 779.434 1121.2 770.774 1144.26C758.249 1177.65 741.844 1205 720.333 1228.45C710.068 1239.67 701.271 1247.78 685.491 1260.44C652.413 1287.13 609.626 1311.86 557.488 1334.47C551.084 1337.22 548.924 1338.38 549.454 1338.74C551.031 1339.75 592.162 1320.52 615.509 1307.87C661.94 1282.69 701.234 1252.83 726.333 1223.58C738.876 1209.01 752.256 1188.56 760.766 1170.89C766.48 1159.07 771.7 1146.14 775.556 1134.08C776.614 1130.86 777.856 1127.11 778.32 1125.81C780.461 1119.69 784.851 1102.19 787.382 1089.89C789.627 1078.87 791.033 1070.93 796.219 1039.48C801.36 1008.34 804.438 990.675 807.047 977.463C819.155 916.025 833.673 873.482 856.693 831.949C858.894 828.014 861.236 823.697 861.947 822.389C862.658 821.082 868.744 811.79 875.426 801.71C887.872 783.073 892.949 776.14 904.691 762.219C915.41 749.452 930.538 733.537 942.761 722.152C947.705 717.517 958.764 707.668 960.584 706.221C960.929 705.978 962.709 704.502 964.585 702.973C973.441 695.746 977.027 692.932 984.815 687.187C1029.15 654.309 1081.3 627.826 1130.85 613.132C1156.34 605.579 1183.27 600.449 1207.72 598.457C1211.68 598.165 1214.95 597.826 1215 597.744C1215.03 597.703 1214.76 597.4 1214.35 597.122C1213.99 596.872 1210.94 596.885 1207.65 597.156C1161.25 600.985 1115.95 613.556 1068.15 635.835C1033.01 652.223 994.045 676.87 964.725 701.277C956.378 708.194 954.487 709.833 948.992 714.75C925.59 735.722 903.938 759.556 885.655 784.49C878.483 794.237 875.9 798.032 869.84 807.461Z" fill="black"/>
<path d="M881.54 815.604C881.553 815.672 879.092 819.55 876.117 824.272C870.057 833.701 864.068 844.254 858.542 855.002C833.59 903.757 819.722 952.355 805.281 1041.76C795.45 1102.66 792.229 1118.26 784.723 1142.35C768.651 1193.75 743.658 1232.92 706.475 1265.11C669.554 1297.01 624.36 1324.4 567.837 1348.98C566.037 1349.79 565.926 1349.95 566.537 1350.36C566.945 1350.64 568.11 1350.42 569.183 1349.9C570.227 1349.41 574.86 1347.25 579.506 1345.16C632.987 1321.02 676.69 1293.62 710.407 1263.19C728.233 1247.08 737.547 1236.47 750.169 1218.01C763.306 1198.71 772.153 1181.5 780.479 1158.93C790.438 1131.85 795.155 1111.6 804.045 1057.34C804.394 1055.25 805.518 1048.25 806.595 1041.76C817.624 974.632 826.513 936.856 840 900.299C851.519 869.089 864.483 843.819 884.194 814.246C900.043 790.522 912.889 774.366 931.793 754.393C992.418 690.391 1074.94 641.113 1156.69 619.968C1180.79 613.743 1209.05 609.214 1228.92 608.412C1230.72 608.319 1230.76 608.346 1229.81 607.64C1227.06 605.712 1187.34 611.217 1164.41 616.685C1082.42 636.172 999.38 683.844 937.148 747.052C919.192 765.282 906.05 780.996 891.089 802.1C885.815 809.497 881.568 815.563 881.54 815.604Z" fill="black"/>
<path d="M881.103 842.891C864.416 871.001 852.219 897.51 842.568 926.766C832.367 957.618 823.641 995.505 816.018 1042.2C815.347 1046.34 814.576 1050.9 814.288 1052.37C814.068 1053.83 812.627 1062.52 811.098 1071.69C802.32 1125.79 797.659 1145.78 787.377 1173.77C775.491 1206.22 758.402 1234.84 736.556 1258.96C718.362 1279.11 689.575 1302.21 657.906 1322.1C642.071 1332.04 612.014 1348.06 592.289 1357.14C582.392 1361.69 582.805 1361.44 583.539 1361.94C584.109 1362.33 595.338 1357.31 608.195 1350.95C610.436 1349.85 614.163 1347.97 616.473 1346.86C629.33 1340.5 654.804 1325.78 669.183 1316.4C680.022 1309.32 696.122 1297.41 706.731 1288.75C732.239 1267.84 752.156 1245.15 766.548 1220.68C780.482 1196.96 790.354 1172.99 798.27 1143.57C802.774 1126.87 805.579 1113.2 810.124 1085.66C820.654 1021.89 823.29 1007.33 828.738 982.495C836.965 945.164 848.06 911.159 861.119 883.207C878.777 845.607 900.829 811.894 928.843 779.851C986.56 713.81 1066.75 661.814 1151.66 635.415C1172.32 628.995 1204.39 622.283 1222.63 620.549C1223.85 620.423 1224.91 620.008 1225.08 619.586C1225.76 617.963 1193.84 623.048 1175.96 627.413C1080.99 650.544 988.053 708.199 923.601 784.046C913.578 795.793 908.434 802.562 896.869 819.29C890.149 828.987 883.078 839.638 881.103 842.891Z" fill="black"/>
<path d="M892.248 851.672C885.826 861.809 874.225 883.41 868.715 895.363C855.149 924.76 844.96 955.681 836.298 994.089C831.057 1017.39 827.804 1034.88 820.531 1079.31C811.494 1134.66 808.32 1149.75 800.831 1173.38C794.418 1193.49 788.727 1207.11 778.906 1225.92C773.926 1235.43 757.484 1259.59 750.577 1267.55C741.248 1278.27 735.386 1284.25 724.88 1293.64C698.303 1317.35 666.798 1338.66 628.161 1358.87C623.897 1361.1 602.625 1371.58 600.784 1372.36C599.698 1372.82 599.643 1372.9 600.336 1373.37C602.171 1374.62 644.838 1352.25 666.744 1338.56C700.712 1317.32 729.462 1293.83 749.089 1271.31C763.789 1254.45 778.242 1232.16 786.847 1213.12C787.826 1210.98 789.351 1207.6 790.247 1205.58C796.82 1191.37 804.002 1169.68 809.166 1148.6C812.945 1133.32 814.884 1122.76 822.025 1079.13C832.559 1015.01 838.135 988.234 847.924 954.833C857.967 920.708 872.645 886.872 889.354 859.255C891.024 856.451 892.764 853.456 893.21 852.625C894.856 849.506 913.239 822.849 918.534 815.945C961.483 760.033 1016.94 713.885 1081.75 680.019C1099.61 670.685 1119.96 661.484 1136.05 655.541C1161.31 646.221 1179.57 641.038 1202.88 636.421C1210.93 634.853 1215.7 633.624 1215.85 633.133C1216.08 632.629 1214.19 632.775 1209.38 633.621C1155.11 643.495 1099.82 665.39 1048.46 697.368C1028.1 710.019 1009.71 723.181 992.826 737.122C963.329 761.528 938.924 786.952 915.978 817.071C910.89 823.758 897.81 842.799 892.248 851.672Z" fill="black"/>
<path d="M902.544 861.964C876.876 904.321 862.667 937.819 849.907 986.454C842.652 1014.12 837.773 1039.52 827.176 1104.43C822.672 1132 822.077 1135.41 819.503 1147.87C812.128 1183.51 801.308 1214.66 787.101 1241.06C782.11 1250.32 766.374 1273.7 760.226 1280.98C736.506 1309.08 703.843 1335.33 661.629 1360.28C649.778 1367.26 630.175 1377.74 619.548 1382.74C617.239 1383.86 616.714 1384.28 617.148 1384.69C617.419 1385 617.745 1385.22 617.882 1385.19C619.047 1384.97 642.045 1372.92 652.516 1367.09C680.709 1351.35 703.634 1335.73 725.464 1317.33C748.15 1298.2 763.924 1280.63 777.906 1258.86C796.447 1230.04 809.14 1199.03 818.343 1159.92C821.914 1144.86 823.855 1134.12 832.966 1078.22C847.662 987.912 862.122 938.881 888.758 888.704C897.363 872.469 900.214 867.841 913.864 847.875C929.597 824.848 936.998 815.376 954 796.795C1017.68 726.991 1107.79 672.964 1197.44 650.811C1202.09 649.677 1205.47 648.572 1205.66 648.108C1205.89 647.604 1203.84 647.886 1199.18 648.952C1148.3 660.951 1092.92 685.597 1044.14 718.01C1002.95 745.387 965.229 779.421 935.527 816.047C924.265 829.876 909.806 850.068 902.544 861.964Z" fill="black"/>
<path d="M911.296 874.787C881.83 922.023 863.913 969.119 850.338 1034.99C846.153 1055.25 843.338 1071.31 835.092 1121.46C833.063 1134.17 830.594 1148.49 829.697 1153.32C824.131 1183.15 815.974 1210.73 805.537 1235.09L804.556 1237.41L806.568 1234.54C810.844 1228.44 819.424 1203.65 825.295 1180.3C829.4 1163.92 831.25 1154.02 838.406 1110.28C843.49 1079.41 845.15 1069.44 847.187 1058.64C861.342 982.714 876.147 938.874 904.758 888.249C910.134 878.773 928.846 850.668 936.11 841.223C973.679 792.337 1020.22 751.048 1074.94 718.075C1110.31 696.776 1149.8 678.991 1186.5 667.846C1191.44 666.372 1194.11 665.261 1194.39 664.675C1194.72 664.007 1192.38 664.561 1185.29 666.726C1130.2 683.683 1075.31 712.179 1027.27 748.746C996.402 772.276 968.813 798.698 945.61 827.089C934.363 840.81 920.181 860.593 911.296 874.787Z" fill="black"/>
<path d="M917.115 892.182C916.502 893.258 914.371 897.002 912.27 900.528C908.302 907.321 902.278 918.626 898.256 926.814C878.48 966.913 864.504 1014 853.159 1078.53C852.551 1081.88 851.711 1086.44 851.347 1088.64C850.942 1090.81 848.279 1106.73 845.452 1124.04C838.399 1167 835.246 1184.08 832.167 1195L831.374 1197.75L832.607 1196.2C834.838 1193.36 838.839 1173.63 846.232 1128.15C852.761 1088.23 852.949 1087.16 855.341 1073.75C856.646 1066.39 860.734 1046.19 862.955 1036.18C874.907 982.155 891.295 938.795 914.539 899.385C915.861 897.18 917.546 894.267 918.297 892.987C922.28 886.084 932.906 870.21 940.133 860.381C952.811 843.156 961.992 832.209 978.672 814.365C983.831 808.8 983.237 809.411 992.204 800.707C1033.9 760.304 1082.66 727.152 1137.48 701.83C1148.05 696.905 1165.77 689.623 1174.89 686.394C1178.45 685.113 1181.52 683.746 1181.89 683.215C1182.52 682.277 1182.52 682.277 1180.81 682.781C1175.53 684.32 1154.67 692.518 1143.4 697.505C1110.5 712.011 1075.16 732.38 1046.24 753.478C1019.2 773.226 999.212 790.848 973.893 817.441C969.358 822.176 958.077 835.157 953.227 841.23C950.844 844.206 948.364 847.235 947.714 847.927C946.303 849.474 918.716 889.391 917.115 892.182Z" fill="black"/>
<path d="M933.808 892.199C904.073 938.954 886.848 979.774 873.221 1035.82C867.243 1060.29 862.188 1086.83 854.377 1134.59C854.055 1136.64 852.481 1146.32 850.891 1156.1C848.518 1170.37 848.158 1173.53 848.992 1172.3C849.964 1170.87 852.587 1156.24 857.744 1123.51C871.021 1039.58 885.702 986.278 908.427 940.007C919.447 917.593 927.963 903.328 944.204 880.169C955.017 864.72 959.772 858.522 969.866 846.585C1015.81 792.233 1078.26 745.356 1146.88 713.606C1152.46 711.016 1159.38 707.959 1162.17 706.753C1165 705.574 1167.61 704.189 1167.97 703.658C1168.33 703.128 1168.53 702.664 1168.45 702.609C1168.37 702.553 1165.56 703.691 1162.24 705.07C1158.89 706.49 1155.27 708.031 1154.25 708.473C1149.51 710.441 1135.71 717.048 1127.82 721.108C1060.74 755.583 1004.6 800.725 960.305 855.899C952.602 865.464 938.798 884.43 933.808 892.199Z" fill="black"/>
<path d="M938.655 911.023C938.694 911.228 936.787 914.468 934.422 918.292C929.375 926.321 924.247 935.608 918.064 947.76C895.578 992.104 881.348 1039.92 868.623 1113.83C863.102 1145.96 862.175 1152.5 863.13 1151.35C864.071 1150.32 864.43 1148.66 866.048 1138.65C867.9 1127.25 871.401 1106.95 872.501 1100.95C873.151 1097.45 874.046 1092.81 874.451 1090.63C879.267 1064.71 886.432 1035.08 892.863 1014.5C905.643 973.459 921.172 940.74 944.779 904.742C955.505 888.458 963.232 877.894 974.935 863.768C1018.87 810.438 1076.6 765.064 1142.36 732.083C1148.26 729.112 1152.2 726.836 1152.7 726.101C1153.33 725.163 1152.59 725.375 1148.51 727.253C1125.86 737.925 1094.93 756.104 1072.19 772.154C1031.71 800.784 998.625 831.767 968.075 869.727C962.477 876.724 938.552 910.296 938.655 911.023Z" fill="black"/>
<path d="M946.753 924.894C925.446 959.353 910.71 992.134 898.262 1032.86C893.481 1048.48 887.102 1074.76 883.022 1095.57C880.801 1106.9 877.328 1125.85 876.883 1129.31L876.53 1131.75L877.53 1130.29C878.098 1129.54 878.705 1127.68 878.953 1126.18C880.228 1117.73 885.608 1090.11 888.515 1077.16C895.248 1046.93 903.333 1019.71 912.378 996.434C929.734 952.001 956.487 907.875 989.477 869.486C1027.82 824.892 1074.85 786.564 1128.28 756.357C1132.74 753.838 1134.78 752.42 1135.28 751.508C1136.73 748.852 1105.22 767.71 1086.07 780.946C1043.54 810.392 1008.46 842.999 976.412 882.984C970.635 890.158 951.648 917.001 946.753 924.894Z" fill="black"/>
<path d="M633.808 1396.15C635.467 1397.22 674.326 1375.37 693.803 1362.35C717.233 1346.77 746.298 1323.27 751.049 1316.11L752.897 1313.31L747.385 1318.51C728.254 1336.54 703.605 1355.05 676.883 1371.43C668.044 1376.88 647.115 1388.61 640.323 1391.93C633.213 1395.45 632.993 1395.6 633.808 1396.15Z" fill="black"/>
<path d="M650.239 1407.34C651.462 1408.17 679.781 1392.16 697.712 1380.54C708.84 1373.3 715.428 1368.53 716.554 1366.79L717.665 1365.16L715.281 1366.82C696.347 1380.26 672.172 1395.1 654.086 1404.4C650.179 1406.46 649.587 1406.89 650.239 1407.34Z" fill="black"/>
<path d="M666.588 1418.46C667.607 1419.16 689.432 1406.73 690.808 1404.62L691.836 1403.11L689.689 1404.33C688.505 1405.02 682.711 1408.36 676.753 1411.77C668.193 1416.63 666.017 1418.08 666.588 1418.46Z" fill="black"/>
<g filter="url(#filter0_f_779_278)">
<circle cx="526.5" cy="247.5" r="11.5" fill="#FFCC00"/>
</g>
<g filter="url(#filter1_f_779_278)">
<circle cx="770" cy="1199" r="20" fill="#FFCC00"/>
</g>
<g filter="url(#filter2_f_779_278)">
<circle cx="395" cy="832" r="12" fill="#FFCC00"/>
</g>
<g filter="url(#filter3_f_779_278)">
<circle cx="985" cy="540" r="12" fill="#FFCC00"/>
</g>
<g filter="url(#filter4_f_779_278)">
<circle cx="1344" cy="1219" r="22" fill="#F1A820"/>
</g>
<g filter="url(#filter5_f_779_278)">
<circle cy="1447" r="22" fill="#F1A820"/>
</g>
<g filter="url(#filter6_f_779_278)">
<circle cx="208" cy="1171" r="22" fill="#F1A820"/>
</g>
</g>
<defs>
<filter id="filter0_f_779_278" x="510" y="231" width="33" height="33" filterUnits="userSpaceOnUse" color-interpolation-filters="sRGB">
<feFlood flood-opacity="0" result="BackgroundImageFix"/>
<feBlend mode="normal" in="SourceGraphic" in2="BackgroundImageFix" result="shape"/>
<feGaussianBlur stdDeviation="2.5" result="effect1_foregroundBlur_779_278"/>
</filter>
<filter id="filter1_f_779_278" x="745" y="1174" width="50" height="50" filterUnits="userSpaceOnUse" color-interpolation-filters="sRGB">
<feFlood flood-opacity="0" result="BackgroundImageFix"/>
<feBlend mode="normal" in="SourceGraphic" in2="BackgroundImageFix" result="shape"/>
<feGaussianBlur stdDeviation="2.5" result="effect1_foregroundBlur_779_278"/>
</filter>
<filter id="filter2_f_779_278" x="378" y="815" width="34" height="34" filterUnits="userSpaceOnUse" color-interpolation-filters="sRGB">
<feFlood flood-opacity="0" result="BackgroundImageFix"/>
<feBlend mode="normal" in="SourceGraphic" in2="BackgroundImageFix" result="shape"/>
<feGaussianBlur stdDeviation="2.5" result="effect1_foregroundBlur_779_278"/>
</filter>
<filter id="filter3_f_779_278" x="968" y="523" width="34" height="34" filterUnits="userSpaceOnUse" color-interpolation-filters="sRGB">
<feFlood flood-opacity="0" result="BackgroundImageFix"/>
<feBlend mode="normal" in="SourceGraphic" in2="BackgroundImageFix" result="shape"/>
<feGaussianBlur stdDeviation="2.5" result="effect1_foregroundBlur_779_278"/>
</filter>
<filter id="filter4_f_779_278" x="1315" y="1190" width="58" height="58" filterUnits="userSpaceOnUse" color-interpolation-filters="sRGB">
<feFlood flood-opacity="0" result="BackgroundImageFix"/>
<feBlend mode="normal" in="SourceGraphic" in2="BackgroundImageFix" result="shape"/>
<feGaussianBlur stdDeviation="3.5" result="effect1_foregroundBlur_779_278"/>
</filter>
<filter id="filter5_f_779_278" x="-29" y="1418" width="58" height="58" filterUnits="userSpaceOnUse" color-interpolation-filters="sRGB">
<feFlood flood-opacity="0" result="BackgroundImageFix"/>
<feBlend mode="normal" in="SourceGraphic" in2="BackgroundImageFix" result="shape"/>
<feGaussianBlur stdDeviation="3.5" result="effect1_foregroundBlur_779_278"/>
</filter>
<filter id="filter6_f_779_278" x="179" y="1142" width="58" height="58" filterUnits="userSpaceOnUse" color-interpolation-filters="sRGB">
<feFlood flood-opacity="0" result="BackgroundImageFix"/>
<feBlend mode="normal" in="SourceGraphic" in2="BackgroundImageFix" result="shape"/>
<feGaussianBlur stdDeviation="3.5" result="effect1_foregroundBlur_779_278"/>
</filter>
<clipPath id="clip0_779_278">
<rect width="1500" height="1641" fill="white"/>
</clipPath>
</defs>
</svg>
